{"accessors" : [{"bufferView" : 0, "byteOffset" : 0, "componentType" : 5123, "count" : 4638, "type" : "SCALAR", "max" : [4637], "min" : [0]}, {"bufferView" : 1, "byteOffset" : 0, "componentType" : 5126, "count" : 4638, "type" : "VEC3", "max" : [11.384392738342285, 11.369780540466309, 41.582088470458984], "min" : [-11.325983047485352, -11.369781494140625, 5.850925445556641], "name" : "POSITION"}, {"bufferView" : 1, "byteOffset" : 12, "componentType" : 5126, "count" : 4638, "type" : "VEC3", "max" : [0.9952248930931091, 0.9987208247184753, 1.0000044107437134], "min" : [-1.0000044107437134, -0.9987208247184753, -0.9946507215499878], "name" : "NORMAL"}, {"bufferView" : 1, "byteOffset" : 24, "componentType" : 5126, "count" : 4638, "type" : "VEC2", "max" : [1.0269984006881714, -0.10123363137245178], "min" : [-0.032380443066358566, -1.0361462831497192], "name" : "TEXCOORD_0"}, {"bufferView" : 0, "byteOffset" : 9276, "componentType" : 5123, "count" : 2964, "type" : "SCALAR", "max" : [2963], "min" : [0]}, {"bufferView" : 2, "byteOffset" : 0, "componentType" : 5126, "count" : 2964, "type" : "VEC3", "max" : [11.384392738342285, 11.369781494140625, 5.850841999053955], "min" : [-11.325983047485352, -11.369781494140625, -8.440017700195312E-05], "name" : "POSITION"}, {"bufferView" : 2, "byteOffset" : 12, "componentType" : 5126, "count" : 2964, "type" : "VEC3", "max" : [0.9952203035354614, 0.9939422607421875, 0.9946512579917908], "min" : [-0.9901136159896851, -0.9939422607421875, -0.9946508407592773], "name" : "NORMAL"}, {"bufferView" : 2, "byteOffset" : 24, "componentType" : 5126, "count" : 2964, "type" : "VEC2", "max" : [1.0165126323699951, 2.5320332497358322E-09], "min" : [-0.02420302852988243, -0.1407078504562378], "name" : "TEXCOORD_0"}, {"bufferView" : 0, "byteOffset" : 15204, "componentType" : 5123, "count" : 1104, "type" : "SCALAR", "max" : [1103], "min" : [0]}, {"bufferView" : 3, "byteOffset" : 0, "componentType" : 5126, "count" : 1104, "type" : "VEC3", "max" : [8.123098373413086, 8.112672805786133, 0], "min" : [-8.081421852111816, -8.112672805786133, -9.113611221313477], "name" : "POSITION"}, {"bufferView" : 3, "byteOffset" : 12, "componentType" : 5126, "count" : 1104, "type" : "VEC3", "max" : [1.0000044107437134, 0.9987209439277649, 1.0000044107437134], "min" : [-0.9948740601539612, -0.9987208247184753, -1.0000042915344238], "name" : "NORMAL"}, {"bufferView" : 3, "byteOffset" : 24, "componentType" : 5126, "count" : 1104, "type" : "VEC2", "max" : [0.9758063554763794, -0], "min" : [-0.03499121963977814, -1], "name" : "TEXCOORD_0"}, {"bufferView" : 0, "byteOffset" : 17412, "componentType" : 5123, "count" : 1104, "type" : "SCALAR", "max" : [1103], "min" : [0]}, {"bufferView" : 4, "byteOffset" : 0, "componentType" : 5126, "count" : 1104, "type" : "VEC3", "max" : [1.4329990148544312, 0.14056406915187836, 4.728688716888428], "min" : [-0.14002260565757751, -0.14056406915187836, 7.874305651967006E-10], "name" : "POSITION"}, {"bufferView" : 4, "byteOffset" : 12, "componentType" : 5126, "count" : 1104, "type" : "VEC3", "max" : [0.998493492603302, 0.9985356330871582, 0.8526726961135864], "min" : [-0.9934218525886536, -0.998535692691803, -1.0000044107437134], "name" : "NORMAL"}, {"bufferView" : 4, "byteOffset" : 24, "componentType" : 5126, "count" : 1104, "type" : "VEC2", "max" : [0.9885849952697754, -0], "min" : [-0.024193525314331055, -1], "name" : "TEXCOORD_0"}, {"bufferView" : 0, "byteOffset" : 19620, "componentType" : 5123, "count" : 4638, "type" : "SCALAR", "max" : [4637], "min" : [0]}, {"bufferView" : 5, "byteOffset" : 0, "componentType" : 5126, "count" : 4638, "type" : "VEC3", "max" : [11.384392738342285, 11.369780540466309, 24.11287498474121], "min" : [-11.325983047485352, -11.369781494140625, 3.3928701877593994], "name" : "POSITION"}, {"bufferView" : 5, "byteOffset" : 12, "componentType" : 5126, "count" : 4638, "type" : "VEC3", "max" : [0.998388409614563, 0.9987208247184753, 1.0000044107437134], "min" : [-1.0000044107437134, -0.9987208247184753, -0.9843313694000244], "name" : "NORMAL"}, {"bufferView" : 5, "byteOffset" : 24, "componentType" : 5126, "count" : 4638, "type" : "VEC2", "max" : [1.0269984006881714, -0.10123363137245178], "min" : [-0.032380443066358566, -1.0361462831497192], "name" : "TEXCOORD_0"}, {"bufferView" : 0, "byteOffset" : 28896, "componentType" : 5123, "count" : 2964, "type" : "SCALAR", "max" : [2963], "min" : [0]}, {"bufferView" : 6, "byteOffset" : 0, "componentType" : 5126, "count" : 2964, "type" : "VEC3", "max" : [11.384392738342285, 11.369781494140625, 3.392821788787842], "min" : [-11.325983047485352, -11.369781494140625, -4.8942489229375497E-05], "name" : "POSITION"}, {"bufferView" : 6, "byteOffset" : 12, "componentType" : 5126, "count" : 2964, "type" : "VEC3", "max" : [0.9983872175216675, 0.9971056580543518, 0.9843318462371826], "min" : [-0.9932647943496704, -0.9971067309379578, -0.9843311905860901], "name" : "NORMAL"}, {"bufferView" : 6, "byteOffset" : 24, "componentType" : 5126, "count" : 2964, "type" : "VEC2", "max" : [1.0165126323699951, 2.5320332497358322E-09], "min" : [-0.02420302852988243, -0.1407078504562378], "name" : "TEXCOORD_0"}, {"bufferView" : 0, "byteOffset" : 34824, "componentType" : 5123, "count" : 1104, "type" : "SCALAR", "max" : [1103], "min" : [0]}, {"bufferView" : 7, "byteOffset" : 0, "componentType" : 5126, "count" : 1104, "type" : "VEC3", "max" : [8.123098373413086, 8.112672805786133, 0], "min" : [-8.081421852111816, -8.112672805786133, -5.28485631942749], "name" : "POSITION"}, {"bufferView" : 7, "byteOffset" : 12, "componentType" : 5126, "count" : 1104, "type" : "VEC3", "max" : [1.0000044107437134, 0.9987209439277649, 1.0000044107437134], "min" : [-0.9948740601539612, -0.9987208247184753, -1.0000044107437134], "name" : "NORMAL"}, {"bufferView" : 7, "byteOffset" : 24, "componentType" : 5126, "count" : 1104, "type" : "VEC2", "max" : [0.9758063554763794, -0], "min" : [-0.03499121963977814, -1], "name" : "TEXCOORD_0"}, {"bufferView" : 0, "byteOffset" : 37032, "componentType" : 5123, "count" : 1104, "type" : "SCALAR", "max" : [1103], "min" : [0]}, {"bufferView" : 8, "byteOffset" : 0, "componentType" : 5126, "count" : 1104, "type" : "VEC3", "max" : [1.4329990148544312, 0.14056406915187836, 2.742100715637207], "min" : [-0.14002260565757751, -0.14056406915187836, 4.566200195732506E-10], "name" : "POSITION"}, {"bufferView" : 8, "byteOffset" : 12, "componentType" : 5126, "count" : 1104, "type" : "VEC3", "max" : [0.9994955658912659, 0.9987509846687317, 0.6873779892921448], "min" : [-0.9944086670875549, -0.9987514019012451, -1.0000044107437134], "name" : "NORMAL"}, {"bufferView" : 8, "byteOffset" : 24, "componentType" : 5126, "count" : 1104, "type" : "VEC2", "max" : [0.9885849952697754, -0], "min" : [-0.024193525314331055, -1], "name" : "TEXCOORD_0"}, {"bufferView" : 0, "byteOffset" : 39240, "componentType" : 5123, "count" : 4638, "type" : "SCALAR", "max" : [4637], "min" : [0]}, {"bufferView" : 9, "byteOffset" : 0, "componentType" : 5126, "count" : 4638, "type" : "VEC3", "max" : [5.260703086853027, 5.253951072692871, 41.582088470458984], "min" : [-5.233712196350098, -5.253951072692871, 5.850925445556641], "name" : "POSITION"}, {"bufferView" : 9, "byteOffset" : 12, "componentType" : 5126, "count" : 4638, "type" : "VEC3", "max" : [0.9948739409446716, 0.9987207055091858, 1.0000044107437134], "min" : [-1.0000044107437134, -0.9987208247184753, -0.9988548755645752], "name" : "NORMAL"}, {"bufferView" : 9, "byteOffset" : 24, "componentType" : 5126, "count" : 4638, "type" : "VEC2", "max" : [1.0269984006881714, -0.10123363137245178], "min" : [-0.032380443066358566, -1.0361462831497192], "name" : "TEXCOORD_0"}, {"bufferView" : 0, "byteOffset" : 48516, "componentType" : 5123, "count" : 2964, "type" : "SCALAR", "max" : [2963], "min" : [0]}, {"bufferView" : 10, "byteOffset" : 0, "componentType" : 5126, "count" : 2964, "type" : "VEC3", "max" : [5.260703086853027, 5.253951072692871, 5.850841999053955], "min" : [-5.233712196350098, -5.253951072692871, -8.440017700195312E-05], "name" : "POSITION"}, {"bufferView" : 10, "byteOffset" : 12, "componentType" : 5126, "count" : 2964, "type" : "VEC3", "max" : [0.9781746864318848, 0.9769164323806763, 0.9988558888435364], "min" : [-0.9731547236442566, -0.9769164323806763, -0.99885493516922], "name" : "NORMAL"}, {"bufferView" : 10, "byteOffset" : 24, "componentType" : 5126, "count" : 2964, "type" : "VEC2", "max" : [1.0165126323699951, 2.5320332497358322E-09], "min" : [-0.02420302852988243, -0.1407078504562378], "name" : "TEXCOORD_0"}, {"bufferView" : 0, "byteOffset" : 54444, "componentType" : 5123, "count" : 1104, "type" : "SCALAR", "max" : [1103], "min" : [0]}, {"bufferView" : 11, "byteOffset" : 0, "componentType" : 5126, "count" : 1104, "type" : "VEC3", "max" : [3.753666400909424, 3.7488486766815186, 0], "min" : [-3.734407663345337, -3.7488484382629395, -9.113611221313477], "name" : "POSITION"}, {"bufferView" : 11, "byteOffset" : 12, "componentType" : 5126, "count" : 1104, "type" : "VEC3", "max" : [1.0000044107437134, 0.9987210035324097, 1.0000044107437134], "min" : [-0.9948737621307373, -0.9987210035324097, -1.0000042915344238], "name" : "NORMAL"}, {"bufferView" : 11, "byteOffset" : 24, "componentType" : 5126, "count" : 1104, "type" : "VEC2", "max" : [0.9758063554763794, -0], "min" : [-0.03499121963977814, -1], "name" : "TEXCOORD_0"}, {"bufferView" : 0, "byteOffset" : 56652, "componentType" : 5123, "count" : 1104, "type" : "SCALAR", "max" : [1103], "min" : [0]}, {"bufferView" : 12, "byteOffset" : 0, "componentType" : 5126, "count" : 1104, "type" : "VEC3", "max" : [0.6621857285499573, 0.06495434790849686, 4.728688716888428], "min" : [-0.06470414251089096, -0.06495434790849686, 7.874305651967006E-10], "name" : "POSITION"}, {"bufferView" : 12, "byteOffset" : 12, "componentType" : 5126, "count" : 1104, "type" : "VEC3", "max" : [0.9929870963096619, 0.9985148310661316, 0.9621795415878296], "min" : [-0.9879984855651855, -0.9985148310661316, -1.0000044107437134], "name" : "NORMAL"}, {"bufferView" : 12, "byteOffset" : 24, "componentType" : 5126, "count" : 1104, "type" : "VEC2", "max" : [0.9885849952697754, -0], "min" : [-0.024193525314331055, -1], "name" : "TEXCOORD_0"}], "asset" : {"generator" : "Aspose.3D 23.9.0", "version" : "2.0"}, "buffers" : [{"uri" : "data:application/octet-stream;base64,", "byteLength" : 1000672}], "bufferViews" : [{"buffer" : 0, "byteOffset" : 0, "byteLength" : 58860, "target" : 34963}, {"buffer" : 0, "byteOffset" : 58864, "byteLength" : 148416, "byteStride" : 32, "target" : 34962}, {"buffer" : 0, "byteOffset" : 207284, "byteLength" : 94848, "byteStride" : 32, "target" : 34962}, {"buffer" : 0, "byteOffset" : 302136, "byteLength" : 35328, "byteStride" : 32, "target" : 34962}, {"buffer" : 0, "byteOffset" : 337468, "byteLength" : 35328, "byteStride" : 32, "target" : 34962}, {"buffer" : 0, "byteOffset" : 372800, "byteLength" : 148416, "byteStride" : 32, "target" : 34962}, {"buffer" : 0, "byteOffset" : 521220, "byteLength" : 94848, "byteStride" : 32, "target" : 34962}, {"buffer" : 0, "byteOffset" : 616072, "byteLength" : 35328, "byteStride" : 32, "target" : 34962}, {"buffer" : 0, "byteOffset" : 651404, "byteLength" : 35328, "byteStride" : 32, "target" : 34962}, {"buffer" : 0, "byteOffset" : 686736, "byteLength" : 148416, "byteStride" : 32, "target" : 34962}, {"buffer" : 0, "byteOffset" : 835156, "byteLength" : 94848, "byteStride" : 32, "target" : 34962}, {"buffer" : 0, "byteOffset" : 930008, "byteLength" : 35328, "byteStride" : 32, "target" : 34962}, {"buffer" : 0, "byteOffset" : 965340, "byteLength" : 35328, "byteStride" : 32, "target" : 34962}], "materials" : [{"name" : "Wax0", "pbrMetallicRoughness" : {"baseColorFactor" : [0, 0, 0, 1], "metallicFactor" : 0, "roughnessFactor" : 0}, "emissiveFactor" : [0, 0, 0], "alphaMode" : "OPAQUE", "doubleSided" : false}, {"name" : "Brass Satin", "pbrMetallicRoughness" : {"baseColorFactor" : [0, 0, 0, 1], "metallicFactor" : 0, "roughnessFactor" : 0}, "emissiveFactor" : [0, 0, 0], "alphaMode" : "OPAQUE", "doubleSided" : false}, {"name" : "Candle_Material #98", "pbrMetallicRoughness" : {"baseColorFactor" : [0, 0, 0, 1], "metallicFactor" : 0, "roughnessFactor" : 0}, "emissiveFactor" : [0, 0, 0], "alphaMode" : "OPAQUE", "doubleSided" : false}, {"name" : "Candle_Material #110", "pbrMetallicRoughness" : {"baseColorFactor" : [0.019607843831181526, 0.019607843831181526, 0.019607843831181526, 1], "metallicFactor" : 0, "roughnessFactor" : 0}, "emissiveFactor" : [0, 0, 0], "alphaMode" : "OPAQUE", "doubleSided" : false}, {"name" : "Wax0", "pbrMetallicRoughness" : {"baseColorFactor" : [0, 0, 0, 1], "metallicFactor" : 0, "roughnessFactor" : 0}, "emissiveFactor" : [0, 0, 0], "alphaMode" : "OPAQUE", "doubleSided" : false}, {"name" : "Brass Satin", "pbrMetallicRoughness" : {"baseColorFactor" : [0, 0, 0, 1], "metallicFactor" : 0, "roughnessFactor" : 0}, "emissiveFactor" : [0, 0, 0], "alphaMode" : "OPAQUE", "doubleSided" : false}, {"name" : "Candle_Material #98", "pbrMetallicRoughness" : {"baseColorFactor" : [0, 0, 0, 1], "metallicFactor" : 0, "roughnessFactor" : 0}, "emissiveFactor" : [0, 0, 0], "alphaMode" : "OPAQUE", "doubleSided" : false}, {"name" : "Candle_Material #110", "pbrMetallicRoughness" : {"baseColorFactor" : [0.019607843831181526, 0.019607843831181526, 0.019607843831181526, 1], "metallicFactor" : 0, "roughnessFactor" : 0}, "emissiveFactor" : [0, 0, 0], "alphaMode" : "OPAQUE", "doubleSided" : false}, {"name" : "Wax0", "pbrMetallicRoughness" : {"baseColorFactor" : [0, 0, 0, 1], "metallicFactor" : 0, "roughnessFactor" : 0}, "emissiveFactor" : [0, 0, 0], "alphaMode" : "OPAQUE", "doubleSided" : false}, {"name" : "Brass Satin", "pbrMetallicRoughness" : {"baseColorFactor" : [0, 0, 0, 1], "metallicFactor" : 0, "roughnessFactor" : 0}, "emissiveFactor" : [0, 0, 0], "alphaMode" : "OPAQUE", "doubleSided" : false}, {"name" : "Candle_Material #98", "pbrMetallicRoughness" : {"baseColorFactor" : [0, 0, 0, 1], "metallicFactor" : 0, "roughnessFactor" : 0}, "emissiveFactor" : [0, 0, 0], "alphaMode" : "OPAQUE", "doubleSided" : false}, {"name" : "Candle_Material #110", "pbrMetallicRoughness" : {"baseColorFactor" : [0.019607843831181526, 0.019607843831181526, 0.019607843831181526, 1], "metallicFactor" : 0, "roughnessFactor" : 0}, "emissiveFactor" : [0, 0, 0], "alphaMode" : "OPAQUE", "doubleSided" : false}], "meshes" : [{"primitives" : [{"attributes" : {"POSITION" : 1, "NORMAL" : 2, "TEXCOORD_0" : 3}, "indices" : 0, "material" : 0, "mode" : 4}, {"attributes" : {"POSITION" : 5, "NORMAL" : 6, "TEXCOORD_0" : 7}, "indices" : 4, "material" : 1, "mode" : 4}], "name" : ""}, {"primitives" : [{"attributes" : {"POSITION" : 9, "NORMAL" : 10, "TEXCOORD_0" : 11}, "indices" : 8, "material" : 2, "mode" : 4}], "name" : ""}, {"primitives" : [{"attributes" : {"POSITION" : 13, "NORMAL" : 14, "TEXCOORD_0" : 15}, "indices" : 12, "material" : 3, "mode" : 4}], "name" : ""}, {"primitives" : [{"attributes" : {"POSITION" : 17, "NORMAL" : 18, "TEXCOORD_0" : 19}, "indices" : 16, "material" : 4, "mode" : 4}, {"attributes" : {"POSITION" : 21, "NORMAL" : 22, "TEXCOORD_0" : 23}, "indices" : 20, "material" : 5, "mode" : 4}], "name" : ""}, {"primitives" : [{"attributes" : {"POSITION" : 25, "NORMAL" : 26, "TEXCOORD_0" : 27}, "indices" : 24, "material" : 6, "mode" : 4}], "name" : ""}, {"primitives" : [{"attributes" : {"POSITION" : 29, "NORMAL" : 30, "TEXCOORD_0" : 31}, "indices" : 28, "material" : 7, "mode" : 4}], "name" : ""}, {"primitives" : [{"attributes" : {"POSITION" : 33, "NORMAL" : 34, "TEXCOORD_0" : 35}, "indices" : 32, "material" : 8, "mode" : 4}, {"attributes" : {"POSITION" : 37, "NORMAL" : 38, "TEXCOORD_0" : 39}, "indices" : 36, "material" : 9, "mode" : 4}], "name" : ""}, {"primitives" : [{"attributes" : {"POSITION" : 41, "NORMAL" : 42, "TEXCOORD_0" : 43}, "indices" : 40, "material" : 10, "mode" : 4}], "name" : ""}, {"primitives" : [{"attributes" : {"POSITION" : 45, "NORMAL" : 46, "TEXCOORD_0" : 47}, "indices" : 44, "material" : 11, "mode" : 4}], "name" : ""}], "nodes" : [{"matrix" : [1, 0, 0, 0, 0, 1, 0, 0, 0, 0, 1, 0, -12.274569511413574, 2.5939407348632812, 0.0012264251708984375, 1], "mesh" : 0, "name" : "Candle_001"}, {"matrix" : [1, 0, 0, 0, 0, 1, 0, 0, 0, 0, 1, 0, -12.260915756225586, 2.5939369201660156, 39.641971588134766, 1], "mesh" : 1, "name" : "Candle_002"}, {"matrix" : [1, 0, 0, 0, 0, 1, 0, 0, 0, 0, 1, 0, -12.242003440856934, 2.5939369201660156, 39.201175689697266, 1], "mesh" : 2, "name" : "Candle_003"}, {"matrix" : [1, 0, 0, 0, 0, 1, 0, 0, 0, 0, 1, 0, 12.21615982055664, 3.9235310554504395, 4.9591064453125E-05, 1], "mesh" : 3, "name" : "Candle_004"}, {"matrix" : [1, 0, 0, 0, 0, 1, 0, 0, 0, 0, 1, 0, 12.229812622070312, 3.9235262870788574, 22.987163543701172, 1], "mesh" : 4, "name" : "Candle_005"}, {"matrix" : [1, 0, 0, 0, 0, 1, 0, 0, 0, 0, 1, 0, 12.248725891113281, 3.9235262870788574, 22.731555938720703, 1], "mesh" : 5, "name" : "Candle_006"}, {"matrix" : [1, 0, 0, 0, 0, 1, 0, 0, 0, 0, 1, 0, 0.44246864318847656, -10.039360046386719, 0.0007152557373046875, 1], "mesh" : 6, "name" : "Candle_007"}, {"matrix" : [1, 0, 0, 0, 0, 1, 0, 0, 0, 0, 1, 0, 0.4487781524658203, -10.039363861083984, 39.64146041870117, 1], "mesh" : 7, "name" : "Candle_008"}, {"matrix" : [1, 0, 0, 0, 0, 1, 0, 0, 0, 0, 1, 0, 0.4575176239013672, -9.996517181396484, 39.20066452026367, 1], "mesh" : 8, "name" : "Candle_009"}, {"children" : [0, 1, 2, 3, 4, 5, 6, 7, 8], "matrix" : [1, 0, 0, 0, 0, 6.123233995736766E-17, -1, 0, 0, 1, 6.123233995736766E-17, 0, 0, 21.96493148803711, 1.3449641520157778E-15, 1], "name" : "Candle_010"}], "scene" : 0, "scenes" : [{"nodes" : [9]}]}