<svg width="2366" height="776" viewBox="0 0 2366 776" fill="none" xmlns="http://www.w3.org/2000/svg">
<g opacity="0.5" filter="url(#filter0_d_108_228)">
<path d="M619.445 30C399.445 29.9999 269.523 76.3136 152.944 205.5C-3.12077 378.441 19.877 502.742 210.945 636C360.47 740.284 459.147 650.127 641.445 650.5C878.215 650.984 1016.23 688.668 1252.95 694C1455.16 698.555 1654.48 656.592 1855.45 679.5C1991.35 694.992 2060.39 728.9 2187.95 679.5C2398.62 597.909 2318.19 457.748 2158.44 298C2052.94 192.5 1955.41 143.801 1817.44 131C1612.83 112.015 1505.73 238.347 1300.44 229C1033.37 216.839 886.797 30.0001 619.445 30Z" fill="url(#paint0_linear_108_228)"/>
</g>
<path d="M1882.5 163.314C1881.6 160.785 1883.65 157.432 1884.48 155.06C1885.58 151.919 1886.86 148.864 1888.25 145.841C1891.09 139.645 1894.18 133.496 1897.94 127.795C1905.19 116.777 1914.26 107.637 1923.64 98.4722C1927.86 94.3415 1932.13 90.148 1936.64 86.3394C1937.34 85.7582 1939.28 83.9678 1939.75 83.9835C1941.09 84.007 1940.68 84.1013 1940.95 85.2556C1941.18 86.2216 1940.97 87.6194 1941 88.5931C1941.13 91.9149 1941.36 95.2367 1941.45 98.5585C1941.8 112.238 1940.26 125.895 1938.11 139.394C1937 146.367 1935.58 152.979 1933.84 159.827C1932.06 166.863 1931.22 174.104 1929.51 181.179C1929.32 181.996 1931.56 181.666 1931.75 180.897C1933.46 173.821 1934.3 166.581 1936.08 159.544C1937.88 152.461 1939.31 145.59 1940.46 138.373C1942.82 123.57 1944.22 108.642 1943.53 93.6426C1943.45 91.9935 1943.34 90.3444 1943.26 88.6952C1943.2 87.1482 1943.58 85.1064 1943.18 83.583C1942.86 82.3893 1942.54 81.9496 1941.22 82.0045C1939.5 82.0752 1937.74 83.7008 1936.48 84.6667C1933.58 86.8655 1930.99 89.4884 1928.32 91.9542C1917.91 101.558 1907.81 111.312 1899.37 122.738C1894.47 129.358 1890.54 136.512 1887.03 143.941C1885.36 147.459 1883.79 151.024 1882.48 154.699C1881.52 157.393 1879.26 161.076 1880.27 163.919C1880.54 164.688 1882.76 164.052 1882.5 163.314Z" fill="#272525"/>
<path d="M1879.97 164.665C1885.98 165.984 1891.12 168.89 1896.76 171.316C1902.41 173.751 1908.07 176.177 1913.7 178.659C1917.91 180.52 1922.96 184.635 1927.7 184.745C1930.16 184.808 1930.55 183.512 1931.02 181.321C1931.2 180.488 1928.96 180.834 1928.78 181.604C1928.22 184.164 1927.27 183.386 1924.87 182.287C1922.89 181.384 1921.04 180.174 1919.07 179.224C1914.72 177.127 1910.23 175.329 1905.8 173.405C1897.76 169.918 1889.85 165.317 1881.32 163.448C1880.62 163.298 1878.7 164.39 1879.97 164.665Z" fill="#272525"/>
<path d="M1906.01 113.385C1905.94 113.542 1905.87 113.699 1905.8 113.848C1906.4 113.597 1907 113.354 1907.6 113.102C1902.29 112.513 1896.94 111.547 1891.61 112.929C1886.73 114.194 1882.37 116.903 1878.86 120.492C1874.63 124.819 1871.29 130.206 1868.17 135.357C1865.18 140.321 1861.05 146.21 1860.71 152.163C1860.7 152.351 1860.76 152.485 1860.94 152.563C1863.92 153.898 1867.19 153.215 1870.36 153.16C1872.04 153.129 1873.73 153.113 1875.42 152.995C1878.04 152.807 1880.7 151.786 1883.3 151.77C1884.14 151.762 1885.68 150.49 1884.18 150.506C1880.79 150.529 1877.62 151.707 1874.23 151.849C1871.69 151.951 1868.84 152.32 1866.31 152.139C1863.38 151.927 1862.78 150.875 1863.55 148.338C1864.14 146.391 1865.16 144.608 1866.12 142.826C1867.68 139.936 1869.24 137.054 1870.97 134.258C1874.39 128.73 1878.06 122.714 1883.16 118.568C1890.18 112.867 1897.81 113.401 1906.24 114.327C1906.87 114.398 1907.75 114.233 1908.03 113.581C1908.1 113.424 1908.17 113.267 1908.24 113.118C1908.54 112.419 1906.33 112.655 1906.01 113.385Z" fill="#272525"/>
<path d="M1941.09 125.808C1947.33 131.093 1953.47 137.509 1956.76 145.087C1960.08 152.76 1959.06 161.147 1958.11 169.235C1957.67 173.114 1956.87 176.695 1955.84 180.465C1955.63 181.234 1955.44 184.203 1954.88 184.886C1953.28 186.81 1950.96 183.944 1949.83 183.025C1943.77 178.117 1938.09 172.84 1933.9 166.212C1933.5 165.591 1931.33 166.306 1931.82 167.083C1934.42 171.183 1937.55 174.819 1941.08 178.14C1944.21 181.085 1947.69 184.603 1951.32 186.92C1957.32 190.744 1958.09 180.292 1959.01 176.915C1960.27 172.266 1960.88 167.193 1961.16 162.387C1961.43 157.84 1961.73 152.508 1960.42 148.126C1957.64 138.813 1950.43 131.078 1943.18 124.944C1942.57 124.426 1940.48 125.29 1941.09 125.808Z" fill="#272525"/>
<path d="M1929.74 116.118C1926.41 112.427 1919.57 114.029 1916.02 116.628C1910.58 120.61 1912.48 128.015 1917.51 131.384C1922.12 134.478 1928.27 135.342 1930.92 129.326C1932.15 126.531 1932.45 123.327 1931.69 120.382C1931.23 118.599 1930.58 115.411 1928.7 114.547C1928.05 114.241 1926 115.207 1926.92 115.631C1928.99 116.581 1929.99 122.384 1929.9 124.324C1929.81 125.997 1929.42 127.795 1928.76 129.334C1928.58 129.884 1928.31 130.394 1927.96 130.858C1926.31 131.329 1924.66 131.8 1923.01 132.271C1922.27 132.185 1921.22 131.407 1920.58 131.062C1917.25 129.216 1914.34 125.73 1914.96 121.67C1915.74 116.597 1923.84 112.749 1927.67 116.997C1928.19 117.571 1930.31 116.762 1929.74 116.118Z" fill="#272525"/>
<path d="M1920.43 145.071C1918.81 141.428 1911.33 141.278 1908.18 142.598C1905.62 143.674 1902.99 146.061 1901.96 148.668C1900.55 152.21 1903.35 155.524 1905.8 157.903C1909.7 161.696 1916.53 164.452 1920.57 159.372C1922.75 156.631 1923.04 153.466 1922.1 150.286C1921.42 147.969 1921.09 144.883 1918.58 143.815C1917.91 143.532 1915.88 144.506 1916.81 144.899C1919.08 145.865 1920.76 151.919 1920.55 154.189C1920.49 154.919 1920.17 155.783 1919.93 156.474C1919.08 158.924 1918.93 158.916 1916.09 159.741C1913.36 160.534 1913.21 160.581 1911.12 159.356C1909.97 158.681 1908.85 157.958 1907.88 157.024C1906.61 155.806 1905.54 154.33 1904.64 152.822C1902.92 149.956 1904.36 147.184 1906.71 145.111C1908.9 143.171 1916.5 141.828 1918.2 145.668C1918.53 146.446 1920.72 145.755 1920.43 145.071Z" fill="#272525"/>
<path d="M1891.53 168.756C1889.56 171.905 1887.37 174.787 1884.95 177.598C1883.85 178.871 1879.95 182.883 1880.5 184.862C1880.97 186.551 1884.58 186.802 1885.91 187.218C1890.45 188.64 1894.93 190.218 1899.45 191.687C1902.99 192.833 1906.38 194.27 1909.87 195.464C1911.03 195.856 1912.4 196.477 1913.5 195.644C1915.2 194.349 1914.98 190.218 1915.2 188.412C1915.6 184.933 1916.36 181.478 1915.95 177.967C1915.86 177.206 1913.81 177.779 1913.71 178.407C1913.7 178.478 1913.69 178.541 1913.68 178.611C1913.55 179.475 1915.79 179.09 1915.92 178.329C1915.93 178.258 1915.94 178.195 1915.95 178.125C1915.2 178.274 1914.46 178.415 1913.71 178.564C1914.09 181.76 1913.44 184.855 1913.04 188.011C1912.86 189.378 1912.79 190.752 1912.57 192.111C1912.57 192.111 1911.49 195.597 1912.76 194.616C1912.13 195.11 1906.37 192.283 1905.26 191.914C1902.14 190.886 1899 189.912 1895.89 188.844C1893.15 187.909 1890.41 186.998 1887.67 186.095C1886.78 185.805 1884.99 185.506 1884.18 184.949C1883.44 185.067 1883.15 184.745 1883.31 183.983C1883.05 183.355 1883.17 182.813 1883.68 182.342C1884.64 179.836 1886.99 177.803 1888.66 175.792C1890.5 173.593 1892.1 171.23 1893.62 168.803C1894.15 167.931 1891.91 168.136 1891.53 168.756Z" fill="#272525"/>
<path d="M1891.71 193.611C1885.5 191.106 1877.98 199.728 1875.77 204.597C1875.55 205.076 1876.55 205.092 1876.73 205.076C1877.72 204.982 1878.07 204.785 1879.02 204.479C1878.7 204.581 1883.05 203.168 1883.34 203.419C1884.55 204.44 1881.66 211.476 1881.43 212.921C1880.96 215.74 1881.41 218.285 1881.84 221.08C1882.06 222.572 1882.1 227.096 1883.34 228.211C1885.49 230.119 1888.31 225.541 1889.19 224.559C1891.23 222.266 1893.47 219.887 1895.31 217.452C1896.98 215.253 1897.79 212.78 1898.93 210.322C1898.26 210.549 1897.6 210.777 1896.92 211.005C1899.87 212.081 1898.77 216.549 1901.14 217.758C1901.64 218.018 1902.54 217.774 1902.92 217.405C1904.66 215.685 1904.84 212.151 1904.6 209.866C1904.14 205.288 1902.03 200.278 1898.5 197.262C1896.87 195.872 1893.61 193.022 1891.32 193.595C1888.74 194.247 1887.45 198.668 1887.23 200.867C1887.18 201.354 1887.86 201.401 1888.2 201.346C1890.16 201.024 1891.73 200.144 1893.47 199.155C1892.87 199.092 1892.26 199.029 1891.66 198.966C1891.61 203.128 1887.16 206.419 1886.72 210.73C1886.7 210.942 1886.78 211.021 1886.95 211.131C1892 214.562 1901.07 199.194 1895.83 195.864C1895.22 195.472 1893.15 196.375 1894.05 196.948C1898.04 199.477 1890.54 210.856 1889.01 209.788C1888.23 209.238 1893.87 200.521 1893.88 198.684C1893.89 197.851 1892.47 198.267 1892.07 198.495C1891.75 198.676 1889.24 199.979 1888.48 200.113C1888.8 200.27 1889.12 200.435 1889.45 200.592C1889.63 198.652 1890.48 195.456 1892.29 194.443C1891.76 194.514 1891.24 194.584 1890.7 194.655C1895.21 196.681 1898.95 199.775 1900.73 204.463C1901.9 207.526 1903.98 214.217 1901.1 217.052C1901.7 216.934 1902.29 216.816 1902.88 216.698C1902.03 216.258 1901.47 213.479 1901.04 212.63C1900.43 211.405 1900.02 210.439 1898.66 209.945C1898 209.701 1896.98 209.945 1896.65 210.628C1895.02 214.138 1893.57 216.785 1891.08 219.706C1888.96 222.203 1886.89 225.918 1884.17 227.692C1884.69 227.622 1885.22 227.551 1885.75 227.48C1884.66 227.009 1884.44 223.35 1884.26 222.368C1883.78 219.698 1883.18 216.62 1883.42 213.918C1883.75 210.314 1886.45 206.081 1885.78 202.539C1885.74 202.351 1885.5 202.28 1885.35 202.233C1882.56 201.377 1879.71 203.631 1877 203.882C1877.32 204.039 1877.64 204.204 1877.96 204.361C1879.43 201.134 1885.68 193.029 1889.9 194.734C1890.61 194.961 1892.64 193.988 1891.71 193.611Z" fill="#272525"/>
<path d="M1917.1 115.662C1915.66 117.005 1916.03 119.722 1916.02 121.512C1916.01 123.656 1915.44 127.167 1916.69 129.051C1916.96 129.467 1918.41 128.981 1918.07 128.47C1917.09 126.978 1917.54 124.143 1917.52 122.47C1917.49 120.939 1916.96 117.154 1918.29 115.913C1918.92 115.316 1917.46 115.324 1917.1 115.662Z" fill="#272525"/>
<path d="M1921.52 115.803C1921.54 115.733 1921.56 115.662 1921.58 115.583C1921.71 115.034 1920.21 115.261 1920.09 115.772C1918.83 120.861 1917.92 126.562 1918.84 131.8C1918.93 132.294 1919.98 131.91 1920.18 131.721C1920.57 131.368 1920.59 131.344 1920.72 130.826C1920.85 130.276 1919.35 130.504 1919.22 131.014C1919.15 131.171 1919.07 131.321 1918.98 131.478C1919.43 131.454 1919.88 131.423 1920.32 131.399C1919.41 126.216 1920.33 120.625 1921.57 115.583C1921.08 115.646 1920.58 115.709 1920.08 115.772C1920.06 115.842 1920.05 115.913 1920.02 115.992C1919.91 116.541 1921.41 116.314 1921.52 115.803Z" fill="#272525"/>
<path d="M1923.69 115.01C1921.85 120.036 1920.46 126.46 1921.26 131.823C1921.34 132.334 1922.69 131.949 1922.75 131.533C1922.76 131.47 1922.77 131.399 1922.78 131.336C1922.87 130.755 1921.37 131.014 1921.29 131.525C1921.28 131.588 1921.27 131.658 1921.26 131.721C1921.75 131.627 1922.25 131.525 1922.75 131.431C1921.96 126.13 1923.37 119.785 1925.18 114.83C1925.36 114.327 1923.87 114.508 1923.69 115.01Z" fill="#272525"/>
<path d="M1926.47 115.05C1925.72 118.756 1925.07 122.486 1924.7 126.248C1924.51 128.133 1923.56 131.132 1924.07 132.915C1924.22 133.433 1925.72 133.033 1925.57 132.514C1925.27 131.478 1925.84 129.837 1925.95 128.777C1926.08 127.481 1926.17 126.177 1926.31 124.881C1926.69 121.52 1927.29 118.183 1927.96 114.869C1928.07 114.304 1926.57 114.547 1926.47 115.05Z" fill="#272525"/>
<path d="M1928.11 117.311C1927.54 119.793 1927.13 122.306 1926.86 124.842C1926.59 127.449 1926.78 130.041 1926.3 132.632C1926.19 133.205 1927.68 132.938 1927.79 132.444C1927.81 132.373 1927.83 132.302 1927.84 132.232C1927.98 131.682 1926.48 131.91 1926.35 132.42C1926.33 132.491 1926.32 132.562 1926.3 132.632C1926.8 132.569 1927.29 132.507 1927.79 132.444C1928.28 129.829 1928.07 127.269 1928.35 124.654C1928.63 122.125 1929.03 119.604 1929.6 117.123C1929.73 116.573 1928.23 116.801 1928.11 117.311Z" fill="#272525"/>
<path d="M1905.69 145.558C1905.71 145.488 1905.73 145.417 1905.75 145.346C1905.25 145.409 1904.76 145.472 1904.26 145.535C1903.61 148.362 1904.32 151.205 1904.12 154.063C1904.12 154.189 1904.16 154.275 1904.27 154.33C1904.35 154.369 1904.43 154.401 1904.51 154.44C1904.95 154.644 1906.31 154.008 1905.69 153.718C1905.51 153.631 1905.56 150.404 1905.55 150.105C1905.44 148.495 1905.38 146.925 1905.75 145.346C1905.88 144.797 1904.38 145.032 1904.26 145.535C1904.24 145.606 1904.23 145.676 1904.2 145.747C1904.07 146.297 1905.57 146.069 1905.69 145.558Z" fill="#272525"/>
<path d="M1907.85 143.886C1906.52 145.283 1906.64 147.239 1906.43 149.053C1906.11 151.974 1905.41 154.762 1906.04 157.683C1906.15 158.194 1907.46 157.809 1907.53 157.393C1907.54 157.33 1907.55 157.259 1907.56 157.196C1907.66 156.623 1906.16 156.874 1906.07 157.385C1906.06 157.448 1906.05 157.518 1906.04 157.581C1906.53 157.487 1907.03 157.385 1907.53 157.291C1906.98 154.731 1907.48 152.312 1907.81 149.767C1908.03 148.056 1907.76 145.48 1909.05 144.137C1909.64 143.501 1908.19 143.524 1907.85 143.886Z" fill="#272525"/>
<path d="M1909.38 143.681C1909.42 146.438 1909.28 149.194 1909.46 151.943C1909.64 154.542 1909.14 157.306 1909.79 159.843C1909.92 160.361 1911.05 159.953 1911.22 159.662C1911.26 159.599 1911.3 159.536 1911.34 159.466C1911.69 158.869 1910.2 159.01 1909.95 159.434C1909.91 159.497 1909.87 159.56 1909.83 159.631C1910.31 159.568 1910.79 159.505 1911.27 159.45C1910.65 157.024 1911.13 154.087 1910.95 151.55C1910.75 148.802 1910.89 146.045 1910.87 143.289C1910.87 142.818 1909.38 143.1 1909.38 143.681Z" fill="#272525"/>
<path d="M1912.75 143.76C1911.76 149.155 1911.79 155.736 1912.66 161.146C1912.75 161.672 1914.06 161.256 1914.15 160.856C1914.18 160.691 1914.22 160.518 1914.25 160.353C1914.37 159.796 1912.87 160.031 1912.76 160.542C1912.73 160.706 1912.69 160.879 1912.66 161.044C1913.15 160.95 1913.65 160.848 1914.15 160.754C1913.29 155.366 1913.25 148.982 1914.25 143.579C1914.35 143.006 1912.85 143.249 1912.75 143.76Z" fill="#272525"/>
<path d="M1916.04 142.998C1915.94 148.817 1915.02 154.464 1915.4 160.29C1915.42 160.369 1915.48 160.416 1915.55 160.448C1915.63 160.487 1915.7 160.518 1915.78 160.557C1916.22 160.762 1917.57 160.133 1916.96 159.835C1915.87 159.317 1916.81 152.398 1916.88 151.519C1917.13 148.605 1917.48 145.731 1917.53 142.802C1917.54 142.197 1916.05 142.504 1916.04 142.998Z" fill="#272525"/>
<path d="M1918.86 145.535C1918.61 149.783 1918.93 154.236 1918.24 158.437C1918.15 159.011 1919.65 158.759 1919.73 158.249C1920.41 154.055 1920.1 149.595 1920.35 145.346C1920.38 144.742 1918.89 145.032 1918.86 145.535Z" fill="#272525"/>
<path d="M1926.39 93.7841C1928.75 96.2814 1931.23 98.5273 1934.37 99.9565C1936.69 101.017 1939.4 101.197 1941.57 102.454C1941.91 102.658 1942.48 102.43 1942.76 102.218C1942.87 102.132 1942.97 102.053 1943.08 101.967C1943.75 101.449 1942.26 101.425 1941.89 101.723C1941.78 101.81 1941.68 101.888 1941.57 101.975C1941.97 101.896 1942.36 101.818 1942.76 101.739C1940.7 100.546 1938.23 100.396 1936.02 99.4382C1932.76 98.0326 1930.21 95.7631 1927.79 93.203C1927.42 92.8261 1926.01 93.3679 1926.39 93.7841Z" fill="#272525"/>
<path d="M1933.5 89.8259C1932.17 90.3127 1931.58 91.1137 1930.74 92.2524C1931.21 92.2603 1931.67 92.276 1932.13 92.2838C1932.79 91.1216 1933.54 89.9986 1934.37 88.9463C1934.8 88.3966 1933.33 88.5773 1933.08 88.805C1931.77 90.03 1930.42 91.1687 1929.24 92.5194C1929.71 92.5273 1930.17 92.543 1930.63 92.5508C1931.25 91.6792 1932.02 90.9724 1932.97 90.4227C1932.57 90.3834 1932.17 90.3363 1931.76 90.297C1931.78 91.0509 1931.55 91.7263 1931.06 92.3388C1930.67 93.022 1932.13 92.6372 1932.35 92.4802C1933.42 91.6635 1934.08 90.407 1935.13 89.6295C1934.68 89.6217 1934.23 89.6138 1933.78 89.5981C1933.32 91.0352 1932.42 92.3938 1931.66 93.6895C1931.28 94.3413 1932.79 94.0272 1933.05 93.7209C1934.59 91.9383 1935.61 89.7709 1937.12 88.0354C1936.64 88.0589 1936.16 88.0904 1935.68 88.1139C1935.67 89.7866 1934.76 90.9331 1934.09 92.4016C1933.44 93.8152 1933.14 95.3622 1932.15 96.5951C1932.61 96.6029 1933.08 96.6187 1933.54 96.6265C1934.56 94.734 1935.62 92.8728 1936.64 90.9645C1937.4 89.551 1938.14 87.2187 1939.17 86.025C1938.69 86.0486 1938.21 86.08 1937.73 86.1036C1937.29 90.1321 1934.8 93.4932 1933.59 97.2783C1933.56 97.3882 1933.65 97.506 1933.74 97.5453C1937.06 98.8489 1939.3 88.5929 1940.43 87.2501C1939.95 87.2737 1939.47 87.3051 1938.99 87.3286C1938.98 90.9331 1935.83 93.9329 1935.43 97.506C1935.36 98.15 1936.68 97.7181 1936.87 97.4275C1938.76 94.5298 1939.25 91.0195 1940.95 88.0197C1940.47 88.0433 1939.99 88.0746 1939.51 88.0982C1938.98 90.2028 1938.24 92.2289 1937.69 94.3099C1938.19 94.2471 1938.68 94.1842 1939.19 94.1214C1939.52 92.6922 1942.01 87.2501 1938.72 87.682C1937.47 87.8469 1936.49 89.1976 1935.72 90.03C1934.08 91.8205 1933.04 93.9408 1931.56 95.8412C1932.02 95.8491 1932.49 95.8648 1932.95 95.8726C1933.84 94.5612 1934.83 92.8178 1933.73 91.3336C1933.19 90.5954 1932.26 90.1478 1931.4 90.6818C1927.83 92.9042 1935.63 98.1421 1936.87 99.1316C1937.3 98.9117 1937.73 98.6997 1938.16 98.4798C1935.82 96.9092 1933.49 93.9486 1930.64 93.2968C1930.33 93.2262 1929.5 93.3675 1929.44 93.7916C1929.19 95.7391 1932.92 97.8044 1934.39 96.1553C1936.01 94.3256 1931.54 92.5901 1930.23 92.5116C1929.91 92.4958 1929.43 92.6372 1929.25 92.9199C1927.52 95.5428 1932 96.9328 1933.9 97.1526C1934.24 97.1919 1935.03 97.1055 1935.1 96.6579C1935.61 93.5168 1925.58 93.2969 1931.64 98.6369C1932.74 99.6028 1934.92 101.001 1936.12 99.4143C1937.41 97.6866 1934.11 92.9356 1932.45 92.4409C1930.44 91.8441 1930.11 93.556 1930.71 95.0952C1931.58 97.3097 1934.8 100.812 1937.52 100.247C1941.79 99.3593 1938.35 91.742 1936.32 95.3543C1935.46 96.9014 1936.43 99.909 1938.51 99.3593C1941.33 98.6133 1941.06 93.4696 1940.07 91.5535C1939.89 91.208 1939.32 91.3258 1939.04 91.4436C1937.06 92.2917 1936.96 97.7181 1939.05 98.4327C1939.46 98.574 1940.07 98.4641 1940.34 98.0871C1941.78 96.0768 1942.2 92.6922 1941.76 90.3049C1941.67 89.8101 1940.3 90.1635 1940.27 90.5955C1940.16 92.166 1940.28 93.6345 1940.4 95.213C1940.52 96.6186 1940.2 98.3149 1940.81 99.5871C1941.03 100.043 1941.87 99.752 1942.15 99.5085C1942.98 98.7861 1943.03 98.0322 1942.17 97.2862C1941.82 96.9877 1941.2 97.2155 1940.88 97.4589C1940.17 98.0008 1939.34 98.9588 1938.39 98.8175C1938.09 99.0845 1937.79 99.3593 1937.48 99.6263C1938.96 99.8305 1940.32 99.5792 1941.82 99.697C1942.22 99.7284 1943.4 99.0531 1942.57 98.8724C1940.91 98.5034 1939.52 97.4118 1937.87 97.1919C1937.6 97.1605 1936.34 97.3804 1936.72 97.8908C1937.72 99.218 1942.07 101.118 1943.53 99.6185C1943.65 99.5007 1943.75 99.3593 1943.62 99.2023C1942.53 97.8594 1940.09 96.6422 1938.59 98.2049C1936.86 100.003 1939.54 100.828 1940.97 101.04C1941.34 101.095 1941.89 100.985 1942.12 100.647C1942.62 99.9012 1942.41 98.8803 1942.56 97.9615C1942.64 97.4825 1941.74 97.6474 1941.53 97.7495C1940.32 98.3384 1938.46 99.3279 1937.22 98.1971C1936.15 97.2155 1938.04 93.6424 1938.34 93.0377C1939.3 91.0745 1940.54 89.2526 1940.18 86.9909C1940.08 86.4255 1938.92 86.9517 1938.74 87.1716C1937.43 88.7421 1937.29 90.7054 1936.85 92.6372C1936.71 93.2262 1938.11 92.8885 1938.28 92.5587C1939.7 89.873 1941.2 87.0067 1941.58 83.9597C1941.64 83.465 1940.77 83.6613 1940.54 83.7477C1937.81 84.8078 1936.7 88.5458 1934.44 90.2656C1934.87 90.3127 1935.31 90.3599 1935.73 90.407C1936.47 89.0641 1937.62 87.627 1938.68 86.5747C1939.37 85.8837 1940.07 85.491 1940.51 84.5958C1940.81 83.9676 1939.59 84.1953 1939.35 84.3602C1937.44 85.6245 1935.79 87.3286 1933.75 88.3966C1934.14 88.4751 1934.52 88.5537 1934.91 88.6322C1935.46 87.5407 1936.7 86.5512 1937.64 85.8287C1937.19 85.8209 1936.74 85.813 1936.3 85.7973C1935.89 86.7946 1934.84 87.6035 1934.05 88.2945C1933.38 88.8756 1934.89 88.805 1935.24 88.538C1936.16 87.8469 1936.78 86.9674 1937.64 86.2449C1938.84 85.2319 1939.6 84.2424 1939.45 86.559C1939.35 88.1846 1938.75 89.6845 1938.77 91.3336C1938.78 91.8283 1940.18 91.4514 1940.26 91.0431C1940.61 89.4018 1941.04 87.7841 1941.42 86.1507C1940.92 86.2135 1940.43 86.2763 1939.92 86.3392C1939.7 88.8364 1939.88 91.6477 1940.27 94.1528C1940.35 94.6711 1941.68 94.2706 1941.76 93.8623C1942.06 92.2681 1943.1 88.5066 1941.78 87.0773C1941.43 86.7082 1940.51 87.0538 1940.34 87.4621C1939.3 90.0143 1939.61 92.9827 1939.24 95.6841C1939.16 96.2888 1940.61 95.9669 1940.73 95.4957C1941.41 92.9749 1942.58 89.7787 1940.86 87.3993C1940.64 87.1009 1939.92 87.3208 1939.7 87.47C1938.72 88.1218 1938.79 88.7264 1938.42 89.8651C1937.58 92.4095 1936.92 94.9146 1936.31 97.5296C1936.19 98.0793 1937.69 97.8516 1937.8 97.3411C1938.24 95.4957 1938.59 93.6031 1939.16 91.797C1939.43 90.9488 1939.85 88.4202 1940.63 87.9019C1940.25 87.9254 1939.86 87.949 1939.48 87.9726C1941.09 90.2028 1939.87 93.3204 1939.24 95.6684C1939.74 95.6056 1940.23 95.5428 1940.73 95.48C1941.1 92.7864 1940.79 89.8023 1941.83 87.258C1941.35 87.3836 1940.87 87.5171 1940.4 87.6427C1941.5 88.8285 1940.53 92.7079 1940.28 94.035C1940.77 93.9408 1941.27 93.8387 1941.77 93.7445C1941.43 91.5692 1941.23 88.3495 1941.42 86.1428C1941.48 85.5303 1940.04 85.8523 1939.93 86.3313C1939.56 87.9647 1939.13 89.5824 1938.78 91.2237C1939.27 91.1294 1939.77 91.0274 1940.27 90.9331C1940.25 89.7002 1942.19 84.5016 1940.17 83.7791C1938.03 83.0095 1935.18 87.4543 1934.07 88.2945C1934.47 88.3731 1934.86 88.4594 1935.26 88.538C1936.23 87.6977 1937.31 86.8182 1937.8 85.6088C1938.04 85.0277 1936.61 85.4596 1936.46 85.5774C1935.42 86.3863 1934.14 87.3993 1933.53 88.5929C1933.2 89.2447 1934.45 88.9542 1934.69 88.8285C1936.73 87.7605 1938.37 86.0643 1940.29 84.7921C1939.9 84.7136 1939.52 84.6351 1939.13 84.5565C1938.59 85.6638 1937.48 86.2135 1936.69 87.093C1935.85 88.0197 1934.95 89.2683 1934.36 90.3677C1933.98 91.0588 1935.42 90.674 1935.64 90.5091C1937.59 89.0249 1938.84 85.2476 1941.14 84.3602C1940.8 84.2895 1940.45 84.2189 1940.11 84.1482C1939.74 87.1166 1938.28 89.9122 1936.91 92.5273C1937.39 92.5037 1937.87 92.4723 1938.35 92.4487C1938.77 90.619 1938.9 88.7029 1940.14 87.203C1939.66 87.2658 1939.18 87.3286 1938.7 87.3836C1939.23 90.6426 1933.46 95.9904 1936.05 99.1159C1937.69 101.103 1940.49 99.1551 1942.13 98.3541C1941.79 98.2835 1941.44 98.2128 1941.09 98.1421C1940.92 98.5897 1940.75 99.0374 1940.58 99.485C1940.53 99.5635 1940.48 99.7206 1940.58 99.7912C1940.63 100.066 1940.69 100.341 1940.75 100.616C1941.13 100.482 1941.52 100.357 1941.9 100.223C1940.8 100.058 1942.12 99.5635 1941.96 99.2023C1941.93 99.1473 1940.93 98.8332 1940.51 98.6683C1939.7 98.362 1938.65 97.9929 1938.12 97.294C1937.73 97.5296 1937.36 97.7573 1936.97 97.9929C1938.5 98.1892 1940.11 99.3201 1941.68 99.6735C1941.93 99.3986 1942.17 99.1237 1942.42 98.8489C1941.08 98.7389 1939.75 98.9981 1938.41 98.8096C1937.95 98.7468 1936.65 99.4928 1937.5 99.6185C1939.67 99.9483 1940.47 98.9353 1942.09 97.7024C1941.66 97.7573 1941.24 97.8123 1940.8 97.8751C1940.86 98.3384 1940.92 98.8018 1940.98 99.2651C1941.42 99.2415 1941.87 99.2101 1942.32 99.1866C1941.87 98.2599 1942.07 97.0663 1942.01 96.0847C1941.9 94.1607 1941.64 92.3467 1941.77 90.3991C1941.28 90.4934 1940.78 90.5955 1940.28 90.6897C1940.67 92.8335 1940.26 96.2103 1938.96 98.04C1939.39 97.9222 1939.81 97.8123 1940.25 97.6945C1939.11 97.3097 1938.45 92.5508 1939.63 92.0404C1939.29 92.0011 1938.94 91.9697 1938.6 91.9304C1939.29 93.2576 1939.49 94.8596 1939.12 96.3281C1938.77 97.6867 1937.99 99.1787 1937.66 96.9171C1937.38 95.0009 1937.76 95.3386 1937.88 96.7757C1937.92 97.1919 1938.24 98.2442 1937.96 98.6212C1936.96 99.9954 1935.08 98.2363 1934.35 97.5924C1933.98 97.2704 1931.51 93.7916 1931.89 93.6974C1932.43 93.556 1934.47 96.8935 1934.58 97.3176C1935.31 100.011 1932.84 98.1028 1932.03 97.0034C1930.05 94.3256 1933.87 95.3151 1933.62 96.8307C1934.02 96.6658 1934.42 96.5009 1934.82 96.336C1934.73 96.3281 1929.08 94.7182 1930.6 93.6581C1930.65 93.6267 1931.88 94.1999 1931.95 94.2785C1933.5 95.8805 1930.72 95.37 1930.95 93.6031C1930.55 93.768 1930.15 93.9329 1929.75 94.0979C1932.49 94.7261 1934.73 97.6709 1937 99.1944C1937.35 99.43 1938.69 98.8646 1938.28 98.5426C1936.69 97.2783 1934.89 96.281 1933.6 94.6633C1932.94 93.8309 1932.36 92.7157 1932.43 92.2838C1933.01 92.4645 1933.08 92.9749 1932.64 93.8073C1932.4 94.5455 1932.05 95.2208 1931.58 95.8334C1931.19 96.4145 1932.69 96.226 1932.97 95.8648C1934 94.5533 1936.05 89.7866 1937.75 89.4568C1938.05 88.7971 1938.3 88.7736 1938.51 89.3861C1938.86 89.6609 1938.91 89.9908 1938.66 90.3677C1938.72 91.5142 1937.98 93.1712 1937.72 94.302C1937.58 94.8518 1939.08 94.6161 1939.21 94.1136C1939.75 92.0247 1940.5 90.0143 1941.02 87.9019C1941.17 87.3129 1939.76 87.6663 1939.59 87.9804C1937.9 90.9724 1937.4 94.4984 1935.51 97.3882C1935.99 97.3647 1936.47 97.3333 1936.95 97.3097C1937.34 93.7288 1940.5 90.7682 1940.51 87.1323C1940.51 86.457 1939.29 86.9438 1939.07 87.2108C1937.93 88.5615 1937.62 90.4305 1936.96 92.0325C1936.55 93.0063 1935.06 94.9852 1934.96 96.0061C1934.83 97.349 1935.61 95.692 1935.98 95.1345C1936.49 94.357 1936.73 93.234 1937.1 92.3781C1938.01 90.2735 1938.99 88.2239 1939.25 85.9151C1939.33 85.2397 1938.01 85.758 1937.81 85.9936C1936.63 87.36 1936.14 89.3625 1935.28 90.9331C1934.25 92.8257 1933.19 94.7104 1932.18 96.5951C1931.82 97.2626 1933.31 96.9485 1933.57 96.6265C1934.48 95.4878 1934.74 94.2314 1935.31 92.9121C1936.05 91.1766 1937.2 89.8887 1937.22 87.9254C1937.22 87.2501 1936.01 87.7448 1935.78 88.004C1934.26 89.7395 1933.25 91.9069 1931.71 93.6895C1932.17 93.6973 1932.64 93.7131 1933.1 93.7209C1933.92 92.3309 1934.83 90.9488 1935.32 89.4175C1935.52 88.805 1934.14 89.2683 1933.98 89.3861C1932.9 90.1871 1932.29 91.4043 1931.2 92.2367C1931.63 92.2838 1932.06 92.3309 1932.49 92.3781C1932.93 91.6085 1933.2 91.0274 1933.29 90.1243C1933.34 89.551 1932.32 89.873 1932.08 89.9986C1930.85 90.6269 1930.15 91.4593 1929.28 92.5351C1928.86 93.0691 1930.38 92.9121 1930.67 92.5665C1931.79 91.2865 1933.08 90.2185 1934.33 89.0641C1933.89 89.017 1933.46 88.9699 1933.04 88.9228C1932.21 89.9751 1931.46 91.098 1930.8 92.2603C1930.44 92.8964 1931.92 92.6451 1932.19 92.2917C1932.68 91.5142 1933.33 90.9017 1934.15 90.4462C1935.06 90.0772 1934.18 89.5746 1933.5 89.8259Z" fill="#272525"/>
<path d="M1868.38 190.171C1860.92 194.796 1857.07 204.204 1853.21 211.703C1848.68 220.514 1844.31 229.514 1840.36 238.608C1839.15 241.403 1831.39 259.41 1836.9 259.779C1837.35 259.811 1838.34 259.559 1838.46 259.002C1838.5 258.798 1838.54 258.586 1838.59 258.381C1838.76 257.549 1836.52 257.894 1836.35 258.664C1836.3 258.868 1836.27 259.08 1836.22 259.284C1836.74 259.025 1837.25 258.766 1837.77 258.507C1835.18 258.334 1841.85 240.053 1842.7 238.097C1846.48 229.412 1850.65 220.836 1854.96 212.402C1858.68 205.146 1862.56 195.299 1869.77 190.83C1871.05 190.045 1869.1 189.723 1868.38 190.171Z" fill="#272525"/>
<path d="M1865.97 218.654C1859.97 229.616 1852.55 240.375 1849 252.445C1848.79 253.167 1850.3 252.885 1850.56 252.767C1851.25 252.453 1851.54 252.311 1851.63 251.518C1851.72 250.631 1849.48 251.039 1849.39 251.801C1849.48 251.817 1849.58 251.832 1849.67 251.848C1850.19 251.958 1850.71 252.06 1851.23 252.17C1854.73 240.241 1862.1 229.546 1868.03 218.709C1868.56 217.774 1866.32 218.002 1865.97 218.654Z" fill="#272525"/>
<path d="M1171.5 353.319C1164.24 337.284 1155.47 321.798 1143.29 308.95C1131.96 297.006 1118.24 287.551 1103.13 281.057C1102.77 280.908 1102.08 281.057 1101.94 281.457C1100.36 286.138 1101.2 291.43 1101.67 296.244C1102.2 301.529 1103 306.783 1104.07 311.982C1106.15 322.12 1109.25 332.046 1113.34 341.548C1117.32 350.822 1122.24 359.704 1128.04 367.973C1129.47 370.023 1130.96 372.041 1132.51 374.004C1133.52 375.276 1134.26 376.313 1136 376.242C1139.94 376.093 1144.72 373.69 1148.26 372.096C1153.13 369.913 1157.76 367.211 1162.06 364.047C1166.33 360.905 1170.36 357.364 1172.37 352.338C1172.54 351.914 1171.23 352.063 1171.06 352.503C1167.47 361.51 1156.59 367.51 1148.21 371.342C1145.91 372.394 1143.55 373.337 1141.15 374.138C1138.61 374.986 1136.15 376.038 1134.05 373.886C1131.01 370.761 1128.55 366.536 1126.19 362.884C1116.32 347.587 1109.39 330.428 1105.61 312.633C1104.58 307.78 1103.79 302.872 1103.23 297.941C1102.62 292.608 1101.53 286.467 1103.28 281.292C1102.88 281.426 1102.48 281.559 1102.09 281.693C1117.14 288.156 1130.8 297.571 1142.07 309.461C1154.21 322.269 1162.95 337.684 1170.19 353.665C1170.39 354.128 1171.68 353.72 1171.5 353.319Z" fill="#272525"/>
<path d="M1120.67 318.703C1126.05 313.63 1134.43 312.767 1139.87 318.248C1141.78 320.188 1143.2 322.771 1143.58 325.496C1144.08 329.093 1142.24 331.944 1140.05 334.574C1137.2 337.998 1133.52 340.731 1128.78 339.844C1125.71 339.263 1123.09 337.393 1121.32 334.849C1118.33 330.569 1116.26 321.955 1121.22 318.311C1121.81 317.871 1120.5 317.848 1120.16 318.091C1113.94 322.661 1117.51 333.875 1122.49 337.99C1128.1 342.631 1135.4 340.982 1140.05 336.004C1142.85 333.004 1145.54 329.462 1144.9 325.135C1144.37 321.593 1142.25 318.35 1139.38 316.253C1133.25 311.777 1124.88 313.521 1119.62 318.476C1119.06 319.01 1120.36 319.002 1120.67 318.703Z" fill="#272525"/>
<path d="M1124.98 320.989C1128.66 316.937 1135.51 318.107 1139 321.986C1142.53 325.913 1139.22 330.067 1135.73 332.501C1133.36 334.158 1130.03 335.297 1127.26 334.033C1125.92 333.42 1124.6 332.438 1123.62 331.355C1120.59 327.994 1123.09 324.271 1125.14 321.138C1125.47 320.635 1124.15 320.745 1123.91 321.107C1122.56 323.156 1120.5 326.023 1120.76 328.622C1121 331.08 1123.16 332.792 1125.1 334.017C1129.93 337.064 1133.95 335.124 1138.12 331.74C1142.56 328.111 1143.21 323.007 1138.01 319.74C1133.53 316.921 1127.67 316.63 1123.91 320.769C1123.4 321.342 1124.68 321.319 1124.98 320.989Z" fill="#272525"/>
<path d="M1118.77 289.766C1117.59 292.655 1116.1 295.373 1113.96 297.674C1112.82 298.899 1111.56 299.974 1110.11 300.83C1108.21 301.945 1105.92 301.922 1104.09 302.927C1104.87 302.495 1103.7 302.299 1103.27 302.534C1103.06 302.652 1102.86 302.77 1102.64 302.88C1102.27 303.092 1102.37 303.453 1102.79 303.453C1111.26 303.445 1117.09 296.943 1120.1 289.593C1120.27 289.184 1118.95 289.334 1118.77 289.766Z" fill="#272525"/>
<path d="M1154.92 322.607C1162.45 319.348 1170.95 321.61 1176.98 326.855C1182.39 331.575 1185.79 338.046 1188.6 344.54C1188.95 344.36 1189.31 344.187 1189.67 344.006C1184.81 342.546 1179.94 340.771 1174.98 339.671C1171.68 338.941 1168.6 338.972 1165.57 340.559C1164.78 340.967 1165.95 341.179 1166.38 340.951C1170.5 338.8 1175.12 340.59 1179.18 341.815C1182.4 342.781 1185.63 343.755 1188.85 344.721C1189.08 344.791 1190.08 344.579 1189.92 344.187C1186.6 336.514 1182.35 328.638 1175.11 324.013C1168.9 320.047 1161.2 319.12 1154.4 322.065C1153.55 322.426 1154.32 322.866 1154.92 322.607Z" fill="#272525"/>
<path d="M1116.05 345.78C1109.77 347.971 1105.2 353.178 1102.82 359.295C1099.57 367.69 1101.05 376.909 1103.46 385.312C1103.59 385.76 1104.73 385.438 1104.78 385.053C1105.44 380.616 1107.25 376.58 1109.89 372.959C1112.92 368.805 1118.56 362.107 1124.28 362.798C1124.7 362.845 1125.83 362.169 1125.09 362.083C1119.69 361.431 1115.31 365.413 1111.86 369.088C1107.62 373.611 1104.38 379.014 1103.46 385.218C1103.9 385.131 1104.34 385.045 1104.78 384.959C1102.62 377.436 1101.2 369.378 1103.31 361.667C1105.17 354.89 1109.78 348.686 1116.57 346.322C1117.44 346.016 1116.65 345.568 1116.05 345.78Z" fill="#272525"/>
<path d="M1165.93 362.217C1165.91 362.17 1168.44 363.607 1168.8 363.889C1169.69 364.581 1170.53 365.311 1171.33 366.096C1172.71 367.447 1173.96 368.923 1175.06 370.509C1175.97 371.821 1177.81 373.706 1176.7 375.386C1176.23 376.101 1174.21 376.729 1173.49 377.114C1171.18 378.362 1168.86 379.603 1166.54 380.852C1164.22 382.1 1161.9 383.341 1159.58 384.59C1158.51 385.163 1157.44 385.736 1156.37 386.317C1154.81 387.15 1153.8 388.131 1152.65 386.2C1151.67 384.551 1148.98 371.601 1151.1 370.847C1151.98 370.541 1151.18 370.093 1150.59 370.305C1148.41 371.075 1149.24 374.711 1149.38 376.493C1149.53 378.653 1149.86 380.797 1150.33 382.909C1150.63 384.189 1150.98 387.189 1151.88 388.139C1152.93 389.247 1153.76 388.556 1155.05 387.864C1159.34 385.571 1163.61 383.263 1167.89 380.97C1170.03 379.823 1172.17 378.669 1174.31 377.522C1175.42 376.925 1177.36 376.352 1178.17 375.363C1179.55 373.666 1176.7 370.541 1175.72 369.229C1173.62 366.395 1170.99 363.827 1168 361.942C1166.65 361.094 1165.56 360.568 1164.45 361.895C1164.41 361.95 1164.4 362.013 1164.41 362.083C1164.47 362.256 1164.54 362.429 1164.6 362.602C1164.78 363.033 1166.09 362.641 1165.93 362.217Z" fill="#272525"/>
<path d="M1174.05 378.692C1179.34 378.802 1183.91 386.223 1186.51 390.15C1186.85 389.946 1187.18 389.742 1187.53 389.529C1185.2 389.255 1182.75 388.721 1180.4 388.674C1179.82 388.666 1179.14 388.54 1178.6 388.831C1176.43 389.977 1178.66 393.676 1179.1 395.364C1181.54 404.552 1182.45 414.054 1181.98 423.541C1182.37 423.407 1182.77 423.274 1183.16 423.14C1173.65 418.122 1167.25 408.659 1165.8 398.042C1165.74 397.602 1164.42 397.901 1164.48 398.395C1164.67 399.95 1164.25 401.128 1163.05 402.141C1163.45 402.118 1163.85 402.094 1164.24 402.071C1163.81 400.869 1159.33 385.47 1160.59 385.43C1161.08 385.415 1161.98 384.653 1161.1 384.684C1159 384.747 1158.95 386.451 1159.23 388.273C1159.96 393.103 1161.26 397.838 1162.92 402.424C1163.08 402.848 1163.88 402.542 1164.1 402.353C1165.48 401.191 1166.01 399.817 1165.79 398.042C1165.35 398.16 1164.91 398.278 1164.47 398.395C1165.95 409.154 1172.48 418.703 1182.11 423.784C1182.38 423.925 1183.27 423.784 1183.3 423.384C1183.62 416.889 1183.33 410.387 1182.31 403.955C1181.8 400.759 1181.12 397.594 1180.27 394.469C1179.8 392.702 1178.21 390.221 1180.78 389.537C1182.27 389.145 1185.16 390.064 1186.73 390.244C1186.99 390.276 1188.06 390.095 1187.75 389.624C1184.87 385.273 1180.47 378.064 1174.58 377.939C1174.07 377.931 1173.17 378.677 1174.05 378.692Z" fill="#272525"/>
<path d="M1172.05 383.38C1172.73 382.705 1175.43 385.595 1175.73 386.16C1177.22 387.393 1176.35 388.021 1173.09 388.053C1172.8 388.013 1172.49 388.014 1172.19 388.037C1171.55 388.414 1171.34 388.084 1170.97 389.019C1170.68 389.757 1171.33 391.359 1171.47 392.089C1171.78 393.613 1172.08 395.128 1172.39 396.652C1172.81 398.78 1174.92 404.041 1173.33 405.934C1173.75 405.879 1174.18 405.824 1174.6 405.769C1172.36 400.869 1170.13 395.976 1167.9 391.076C1167.72 390.676 1166.78 390.911 1166.62 391.241C1165.9 392.757 1165.18 394.272 1164.46 395.788C1164.88 395.733 1165.3 395.678 1165.73 395.623C1164.02 391.43 1164.05 387.079 1165.85 382.925C1166.02 382.516 1164.72 382.658 1164.53 383.09C1162.71 387.315 1162.68 391.712 1164.41 395.976C1164.57 396.385 1165.53 396.133 1165.68 395.811C1166.4 394.296 1167.13 392.78 1167.85 391.265C1167.42 391.32 1167 391.375 1166.58 391.43C1168.81 396.33 1171.05 401.222 1173.28 406.122C1173.49 406.578 1174.34 406.224 1174.56 405.957C1175.57 404.756 1175.12 403.429 1174.85 401.992C1174.3 399.133 1173.7 396.291 1173.13 393.44C1172.99 392.772 1172 389.961 1172.33 389.451C1172.93 388.508 1173.4 389.097 1174.23 388.893C1175.64 388.54 1176.74 388.335 1178 387.519C1178.14 387.432 1178.35 387.236 1178.2 387.063C1176.75 385.398 1173.59 380.592 1170.98 383.16C1170.45 383.702 1171.74 383.687 1172.05 383.38Z" fill="#272525"/>
<path d="M1118.7 290.88C1114.06 303.288 1110.72 316.104 1108.7 329.187C1108.62 329.698 1109.95 329.47 1110.02 329.022C1112.05 315.939 1115.38 303.123 1120.01 290.716C1120.18 290.284 1118.86 290.441 1118.7 290.88Z" fill="#272525"/>
<path d="M1113.97 298.051C1110.79 306.39 1108.57 315.013 1107.31 323.848C1107.24 324.366 1108.56 324.13 1108.63 323.683C1109.88 314.848 1112.11 306.226 1115.29 297.886C1115.45 297.454 1114.13 297.611 1113.97 298.051Z" fill="#272525"/>
<path d="M1110.69 301.019C1108.78 306.704 1107.22 312.476 1105.99 318.342C1105.89 318.837 1107.22 318.625 1107.31 318.177C1108.53 312.303 1110.1 306.531 1112.01 300.854C1112.17 300.406 1110.85 300.571 1110.69 301.019Z" fill="#272525"/>
<path d="M1107.86 303.053C1106.5 307.018 1105.45 311.055 1104.68 315.17C1104.59 315.672 1105.92 315.453 1106 315.005C1106.77 310.882 1107.83 306.854 1109.18 302.888C1109.33 302.44 1108.01 302.613 1107.86 303.053Z" fill="#272525"/>
<path d="M1106.73 303.28C1106.66 303.108 1106.58 302.927 1106.51 302.754C1106.33 302.307 1105.3 302.628 1105.19 303.013C1104.62 305.134 1104.14 307.27 1103.77 309.429C1103.68 309.932 1105.01 309.712 1105.09 309.264C1105.46 307.105 1105.94 304.969 1106.51 302.848C1106.07 302.935 1105.63 303.021 1105.19 303.108C1105.27 303.28 1105.34 303.461 1105.41 303.634C1105.6 304.089 1106.9 303.697 1106.73 303.28Z" fill="#272525"/>
<path d="M1121.12 292.043C1116.36 305.55 1112.55 319.363 1109.71 333.404C1109.61 333.899 1110.94 333.687 1111.03 333.24C1113.87 319.198 1117.67 305.385 1122.44 291.878C1122.6 291.438 1121.28 291.603 1121.12 292.043Z" fill="#272525"/>
<path d="M1123.22 293.346C1118.29 307.662 1114.52 322.324 1111.89 337.236C1111.8 337.739 1113.13 337.519 1113.21 337.071C1115.84 322.159 1119.61 307.497 1124.54 293.181C1124.69 292.734 1123.37 292.906 1123.22 293.346Z" fill="#272525"/>
<path d="M1125.92 295.263C1123.69 303.045 1121.46 310.835 1119.23 318.617C1119.1 319.081 1120.43 318.9 1120.55 318.452C1122.78 310.67 1125.01 302.88 1127.24 295.098C1127.38 294.627 1126.05 294.815 1125.92 295.263Z" fill="#272525"/>
<path d="M1116.63 326.117C1115.49 331.269 1114.36 336.42 1113.22 341.572C1113.11 342.059 1114.44 341.854 1114.54 341.407C1115.68 336.255 1116.81 331.104 1117.95 325.952C1118.06 325.465 1116.73 325.669 1116.63 326.117Z" fill="#272525"/>
<path d="M1129.26 297.265C1129.3 297.257 1129.33 297.249 1129.35 297.241C1129.52 297.194 1130.01 296.998 1129.92 296.731C1129.91 296.684 1129.89 296.645 1129.88 296.598C1129.72 296.119 1128.8 296.527 1128.61 296.762C1127.94 297.54 1127.87 298.938 1127.62 299.911C1127.14 301.765 1126.67 303.618 1126.19 305.464C1125.29 308.982 1124.4 312.5 1123.49 316.018C1123.37 316.497 1124.69 316.301 1124.81 315.853C1125.62 312.704 1126.42 309.563 1127.23 306.414C1127.61 304.93 1127.98 303.453 1128.37 301.969C1128.71 300.603 1128.93 297.854 1129.84 296.794C1129.41 296.849 1128.99 296.904 1128.57 296.959C1128.58 297.006 1128.6 297.045 1128.61 297.092C1128.8 296.92 1129 296.755 1129.19 296.582C1129.15 296.59 1129.12 296.598 1129.1 296.605C1128.3 296.825 1128.47 297.493 1129.26 297.265Z" fill="#272525"/>
<path d="M1118.73 333.106C1118.18 337.292 1116.18 341.077 1115.54 345.239C1115.46 345.749 1116.79 345.521 1116.86 345.074C1117.51 340.912 1119.5 337.127 1120.05 332.941C1120.12 332.423 1118.8 332.658 1118.73 333.106Z" fill="#272525"/>
<path d="M1132.27 299.723C1132.29 299.7 1132.31 299.684 1132.33 299.66C1132.4 299.582 1132.39 299.464 1132.33 299.386C1132.3 299.354 1132.28 299.331 1132.25 299.299C1131.97 298.985 1131.23 299.268 1131.02 299.543C1129.89 301.058 1129.72 304.239 1129.27 306.084C1128.95 307.411 1128.63 308.738 1128.32 310.066C1128.02 311.291 1127.9 313.835 1127.07 314.793C1127.49 314.738 1127.91 314.683 1128.34 314.628C1128.33 314.589 1128.32 314.55 1128.32 314.503C1128.06 314.683 1127.81 314.864 1127.56 315.044C1127.58 315.044 1127.62 315.044 1127.64 315.036C1128.29 314.997 1128.74 314.251 1127.82 314.306C1127.8 314.306 1127.77 314.306 1127.74 314.314C1127.51 314.33 1126.93 314.526 1126.99 314.856C1127 314.895 1127 314.934 1127.01 314.982C1127.1 315.484 1128.12 315.013 1128.28 314.817C1129.49 313.419 1129.6 309.987 1130.03 308.189C1130.34 306.862 1130.66 305.534 1130.99 304.215C1131.31 302.951 1131.46 300.611 1132.24 299.566C1131.83 299.645 1131.42 299.731 1131.02 299.81C1131.02 299.77 1131.02 299.731 1131.03 299.692C1130.67 300.116 1131.99 300.037 1132.27 299.723Z" fill="#272525"/>
<path d="M1121.28 335.713C1120.42 341.241 1118.77 346.684 1117.76 352.196C1117.66 352.699 1119 352.479 1119.08 352.031C1120.09 346.519 1121.74 341.069 1122.6 335.548C1122.68 335.03 1121.35 335.257 1121.28 335.713Z" fill="#272525"/>
<path d="M1135.17 300.956C1135.1 300.54 1135.14 300.619 1134.82 300.344C1134.5 300.077 1133.67 300.273 1133.55 300.681C1132.77 303.218 1132.03 305.754 1131.33 308.314C1130.92 309.799 1129.48 312.83 1129.94 314.298C1129.98 314.455 1130.2 314.503 1130.34 314.495C1130.38 314.495 1130.41 314.487 1130.45 314.487C1130.94 314.463 1131.85 313.694 1130.96 313.741C1131.57 313.709 1132.79 307.639 1132.93 307.129C1133.54 304.914 1134.19 302.715 1134.87 300.516C1134.44 300.626 1134.02 300.744 1133.59 300.854C1133.68 301.003 1133.76 301.153 1133.85 301.302C1133.91 301.757 1135.24 301.451 1135.17 300.956Z" fill="#272525"/>
<path d="M1136.54 303.547C1135.14 305.275 1135.05 307.906 1134.61 310.01C1134.38 311.165 1133.06 314.298 1133.78 315.28C1134.03 315.625 1134.81 315.288 1135.01 315.036C1135.03 315.005 1135.06 314.973 1135.08 314.934C1135.19 314.793 1135.12 314.683 1135 314.604C1134.97 314.589 1134.95 314.573 1134.93 314.557C1134.57 314.314 1133.36 314.84 1133.87 315.193C1133.84 315.131 1133.81 315.068 1133.78 315.005C1134.19 314.926 1134.6 314.84 1135.01 314.761C1134.55 314.141 1135.85 310.285 1136.03 309.414C1136.42 307.513 1136.52 305.11 1137.77 303.579C1138.13 303.123 1136.81 303.21 1136.54 303.547Z" fill="#272525"/>
<path d="M1138.84 305.943C1137.89 306.987 1137.5 308.526 1137.05 309.83C1136.4 311.675 1135.88 313.56 1135.46 315.468C1135.37 315.837 1136.05 315.751 1136.21 315.712C1136.27 315.696 1136.33 315.688 1136.39 315.672C1136.58 315.633 1136.91 315.484 1136.96 315.256C1136.98 315.193 1136.98 315.131 1137 315.068C1137.09 314.565 1135.77 314.785 1135.68 315.233C1135.66 315.296 1135.66 315.358 1135.64 315.421C1135.83 315.28 1136.03 315.146 1136.21 315.005C1136.15 315.021 1136.09 315.029 1136.03 315.044C1136.29 315.123 1136.54 315.209 1136.78 315.288C1137.1 313.827 1137.48 312.382 1137.93 310.953C1138.39 309.524 1138.89 307.254 1139.9 306.139C1140.42 305.589 1139.14 305.613 1138.84 305.943Z" fill="#272525"/>
<path d="M1141.62 308.581C1140.91 310.081 1140.3 311.612 1139.84 313.214C1139.53 314.298 1138.69 316.206 1139.41 317.204C1139.67 317.565 1140.95 317.117 1140.63 316.685C1140.06 315.9 1140.98 313.646 1141.24 312.775C1141.66 311.345 1142.21 309.955 1142.86 308.613C1143.13 308.039 1141.81 308.189 1141.62 308.581Z" fill="#272525"/>
<path d="M1145.24 311.636C1145.2 311.424 1145.17 311.204 1145.14 310.992C1145.07 310.513 1143.92 310.913 1143.82 311.251C1143.3 313.128 1142.78 315.005 1142.25 316.882C1141.88 318.232 1141.04 319.952 1141.11 321.35C1141.12 321.452 1141.29 321.523 1141.37 321.531C1141.41 321.539 1141.45 321.539 1141.49 321.546C1141.86 321.593 1142.39 321.491 1142.56 321.107C1142.57 321.075 1142.58 321.044 1142.6 321.02C1142.77 320.604 1141.46 320.753 1141.28 321.185C1141.26 321.217 1141.25 321.248 1141.24 321.272C1141.59 321.122 1141.95 320.981 1142.31 320.832C1142.74 320.887 1144.91 311.974 1145.16 311.086C1144.72 311.173 1144.28 311.259 1143.84 311.345C1143.87 311.557 1143.9 311.777 1143.93 311.989C1143.99 312.437 1145.31 312.131 1145.24 311.636Z" fill="#272525"/>
<path d="M1146.86 314.612C1145.28 317.714 1144.16 320.965 1143.49 324.381C1143.38 324.876 1144.72 324.664 1144.81 324.216C1145.46 320.871 1146.55 317.682 1148.1 314.643C1148.37 314.078 1147.06 314.227 1146.86 314.612Z" fill="#272525"/>
<path d="M1148.39 318.091C1141.19 334.378 1134.27 350.783 1127.63 367.314C1127.46 367.738 1128.78 367.581 1128.95 367.149C1135.59 350.626 1142.51 334.214 1149.71 317.927C1149.89 317.518 1148.58 317.66 1148.39 318.091Z" fill="#272525"/>
<path d="M1136.69 338.289C1135.47 342.522 1133.03 346.424 1131.23 350.445C1129.25 354.866 1127.47 359.366 1125.85 363.937C1125.69 364.376 1127.01 364.211 1127.17 363.772C1128.79 359.209 1130.57 354.701 1132.55 350.28C1134.34 346.275 1136.79 342.357 1138.01 338.124C1138.15 337.661 1136.83 337.841 1136.69 338.289Z" fill="#272525"/>
<path d="M1132.45 340.354C1133.02 341.021 1131.04 344.571 1130.76 345.246C1130.02 347.092 1129.28 348.929 1128.53 350.775C1127.05 354.458 1125.57 358.149 1124.08 361.832C1123.91 362.248 1125.23 362.099 1125.4 361.667C1127.11 357.426 1128.82 353.194 1130.52 348.953C1131.34 346.927 1132.15 344.901 1132.97 342.875C1133.32 341.995 1134.39 340.692 1133.67 339.844C1133.39 339.49 1132.12 339.961 1132.45 340.354Z" fill="#272525"/>
<path d="M1129.01 340.684C1126.39 346.299 1123.98 352 1121.79 357.796C1121.63 358.228 1122.95 358.071 1123.11 357.631C1125.3 351.835 1127.7 346.134 1130.33 340.519C1130.51 340.127 1129.2 340.26 1129.01 340.684Z" fill="#272525"/>
<path d="M1126.34 340.197C1126.59 341.312 1125.36 343.056 1124.94 344.053C1124.43 345.27 1123.92 346.487 1123.44 347.712C1122.42 350.343 1121.47 353.013 1120.58 355.699C1120.43 356.147 1121.75 355.982 1121.9 355.534C1122.9 352.487 1123.99 349.472 1125.18 346.495C1125.86 344.807 1128.07 341.634 1127.66 339.836C1127.56 339.388 1126.23 339.726 1126.34 340.197Z" fill="#272525"/>
<path d="M1124 339.404C1122.35 344.053 1120.72 348.71 1119.08 353.359C1118.92 353.799 1120.24 353.634 1120.4 353.194C1122.04 348.545 1123.67 343.888 1125.31 339.239C1125.47 338.8 1124.15 338.965 1124 339.404Z" fill="#272525"/>
<path d="M1150.75 319.52C1141.95 335.32 1138.6 353.547 1129.04 368.97C1128.72 369.489 1130.04 369.371 1130.28 369.002C1139.83 353.579 1143.19 335.352 1151.98 319.552C1152.28 319.002 1150.96 319.136 1150.75 319.52Z" fill="#272525"/>
<path d="M1152.05 321.688C1145.76 339.074 1139.9 356.633 1131.09 372.952C1130.79 373.502 1132.11 373.36 1132.32 372.983C1141.15 356.602 1147.05 338.972 1153.37 321.523C1153.53 321.083 1152.21 321.24 1152.05 321.688Z" fill="#272525"/>
<path d="M1154.07 323.612C1150.14 332.549 1147.23 341.87 1144.09 351.097C1142.57 355.527 1141 359.948 1139.21 364.275C1138.13 366.89 1136.96 369.481 1135.68 372.01C1135.14 373.078 1133.77 374.656 1134.07 375.897C1134.1 376.062 1134.33 376.086 1134.47 376.093C1135.02 376.125 1135.38 375.991 1135.71 375.544C1135.78 375.457 1135.78 375.355 1135.71 375.269C1135.68 375.222 1135.64 375.182 1135.6 375.135C1135.32 374.782 1134.05 375.245 1134.38 375.654C1134.76 376.133 1138.06 369.701 1138.37 369.041C1139.28 367.086 1140.13 365.115 1140.94 363.12C1142.7 358.778 1144.25 354.356 1145.76 349.92C1148.77 341.022 1151.61 332.07 1155.39 323.463C1155.57 323.039 1154.26 323.18 1154.07 323.612Z" fill="#272525"/>
<path d="M1155.57 326.635C1152.14 334.543 1148.93 342.341 1146.46 350.603C1143.86 359.327 1140.59 367.761 1136.47 375.889C1136.18 376.447 1137.5 376.305 1137.7 375.92C1141.68 368.068 1144.93 359.908 1147.48 351.482C1150.07 342.867 1153.32 334.724 1156.9 326.47C1157.06 326.062 1155.76 326.203 1155.57 326.635Z" fill="#272525"/>
<path d="M1157.86 329.745C1157.91 329.737 1157.96 329.729 1158.02 329.714C1158.26 329.666 1158.81 329.525 1158.77 329.172C1158.76 329.101 1158.75 329.03 1158.75 328.952C1158.72 328.732 1158.31 328.755 1158.17 328.763C1156.3 328.897 1155.6 331.795 1155.11 333.2C1153.51 337.849 1151.99 342.522 1150.36 347.155C1147.07 356.492 1143.57 365.751 1139.87 374.931C1139.69 375.355 1141.01 375.198 1141.19 374.766C1144.22 367.235 1147.12 359.657 1149.88 352.024C1151.22 348.301 1152.54 344.563 1153.82 340.81C1154.47 338.933 1155.09 337.056 1155.71 335.171C1156.22 333.624 1157.61 330.891 1157.44 329.509C1157.69 329.329 1157.94 329.148 1158.2 328.968C1158.14 328.975 1158.09 328.983 1158.04 328.999C1157.41 329.125 1156.95 329.902 1157.86 329.745Z" fill="#272525"/>
<path d="M1160.17 331.166C1160.16 331.064 1160.14 330.962 1160.13 330.868C1160.11 330.797 1160.06 330.75 1160 330.726C1158.99 330.389 1158.6 330.797 1158.06 331.598C1156.9 333.302 1156.41 336.294 1155.75 338.242C1154.94 340.652 1154.14 343.063 1153.36 345.482C1150.44 354.615 1147.81 363.842 1145.45 373.14C1145.33 373.619 1146.66 373.423 1146.77 372.975C1148.61 365.766 1150.59 358.596 1152.76 351.482C1153.79 348.113 1154.85 344.76 1155.96 341.414C1156.57 339.561 1157.2 337.708 1157.83 335.854C1158.29 334.527 1158.62 331.951 1159.68 331.04C1159.32 331.111 1158.97 331.182 1158.63 331.252C1158.7 331.339 1158.78 331.433 1158.85 331.519C1158.89 331.951 1160.21 331.669 1160.17 331.166Z" fill="#272525"/>
<path d="M1159.36 333.075C1156.29 345.734 1152.87 358.306 1149.09 370.777C1148.95 371.24 1150.28 371.06 1150.41 370.612C1154.19 358.142 1157.61 345.569 1160.68 332.91C1160.8 332.423 1159.47 332.619 1159.36 333.075Z" fill="#272525"/>
<path d="M1161.08 335.917C1157.93 347.343 1154.77 358.777 1151.62 370.203C1151.49 370.674 1152.82 370.486 1152.94 370.038C1156.09 358.612 1159.25 347.178 1162.4 335.752C1162.53 335.281 1161.2 335.469 1161.08 335.917Z" fill="#272525"/>
<path d="M1162.87 339.302C1160.48 348.749 1157.88 358.134 1155.07 367.463C1154.93 367.926 1156.25 367.745 1156.39 367.298C1159.2 357.969 1161.8 348.584 1164.19 339.137C1164.3 338.658 1162.98 338.855 1162.87 339.302Z" fill="#272525"/>
<path d="M1164.95 342.349C1163.94 346.535 1162.84 350.689 1161.62 354.819C1161.07 356.696 1160.5 358.565 1159.91 360.426C1159.4 362.005 1158.41 363.827 1158.45 365.492C1158.45 365.649 1158.75 365.688 1158.85 365.688C1158.93 365.688 1159 365.688 1159.08 365.688C1159.35 365.688 1159.93 365.562 1160 365.232C1160.02 365.17 1160.02 365.107 1160.04 365.052C1160.14 364.557 1158.82 364.769 1158.72 365.217C1158.71 365.28 1158.7 365.342 1158.68 365.397C1158.99 365.248 1159.29 365.091 1159.6 364.942C1160.42 364.95 1162.94 354.678 1163.27 353.532C1164.35 349.77 1165.34 345.985 1166.27 342.184C1166.39 341.705 1165.06 341.901 1164.95 342.349Z" fill="#272525"/>
<path d="M1166.33 345.616C1165.28 351.387 1163.88 357.057 1162.12 362.649C1161.98 363.104 1163.3 362.931 1163.44 362.484C1165.2 356.892 1166.6 351.223 1167.64 345.451C1167.74 344.948 1166.41 345.168 1166.33 345.616Z" fill="#272525"/>
<path d="M1169.13 349.267C1169.12 349.095 1169.09 348.93 1169.08 348.757C1169.02 348.301 1167.83 348.655 1167.76 349.016C1167.2 351.874 1166.49 354.694 1165.56 357.45C1165.14 358.706 1163.21 361.659 1164.16 362.806C1164.45 363.151 1165.72 362.688 1165.39 362.287C1164.73 361.494 1167.02 356.916 1167.36 355.817C1168.07 353.524 1168.62 351.199 1169.09 348.843C1168.65 348.93 1168.21 349.016 1167.77 349.102C1167.78 349.275 1167.81 349.44 1167.82 349.613C1167.86 350.06 1169.19 349.77 1169.13 349.267Z" fill="#272525"/>
<path d="M1168.88 352.181C1167.86 354.372 1167.08 356.626 1166.5 358.974C1166.39 359.453 1167.71 359.256 1167.82 358.809C1168.4 356.461 1169.18 354.207 1170.19 352.016C1170.37 351.623 1169.07 351.757 1168.88 352.181Z" fill="#272525"/>
<path d="M1171.44 384.236C1173.3 384.189 1174.26 385.297 1174.68 386.804C1175.1 386.663 1175.53 386.514 1175.95 386.372C1175.22 385.854 1174.7 385.163 1174.4 384.299C1174 384.464 1173.6 384.629 1173.21 384.794C1173.48 384.998 1173.75 385.21 1174.02 385.414C1174.43 385.242 1174.84 385.069 1175.24 384.896C1174.59 384.142 1174 383.687 1173.14 383.216C1172.87 383.066 1171.99 383.216 1171.95 383.616C1171.78 385.265 1171.84 386.687 1172.16 388.312C1172.6 388.194 1173.04 388.076 1173.48 387.959C1172.92 386.043 1172.36 384.134 1171.81 382.218C1171.67 381.755 1170.43 382.1 1170.49 382.572C1170.71 384.535 1170.92 386.498 1171.14 388.461C1171.58 388.343 1172.02 388.226 1172.46 388.108C1171.53 386.435 1170.96 384.77 1170.68 382.87C1170.61 382.407 1169.35 382.752 1169.36 383.223C1169.42 385.21 1169.46 387.189 1169.52 389.176C1169.96 389.058 1170.4 388.94 1170.84 388.823C1170.25 386.663 1169.67 384.496 1169.08 382.336C1168.95 381.857 1167.75 382.226 1167.76 382.689C1167.84 385.194 1167.92 387.692 1167.99 390.197C1168.43 390.079 1168.87 389.961 1169.31 389.843C1168.75 387.181 1168.32 384.519 1168.03 381.818C1167.98 381.362 1166.7 381.692 1166.71 382.171C1166.72 384.888 1166.75 387.613 1166.76 390.33C1167.2 390.212 1167.64 390.095 1168.08 389.977C1167.35 387.888 1166.94 385.768 1166.57 383.592C1166.49 383.153 1165.28 383.467 1165.25 383.852C1165.07 386.137 1164.89 388.43 1164.71 390.715C1165.14 390.605 1165.56 390.487 1165.99 390.377C1165.51 389.718 1165.26 388.995 1165.23 388.202C1164.79 388.32 1164.35 388.438 1163.91 388.556C1164.13 389.608 1164.34 390.668 1164.56 391.72C1164.67 392.207 1165.78 391.791 1165.88 391.461C1166.54 389.317 1167.2 387.181 1167.86 385.037C1168.11 384.197 1168.28 382.25 1169.42 382.132C1170.24 382.045 1171.84 383.922 1172.32 384.448C1172.66 384.244 1173 384.04 1173.34 383.828C1171.77 383.325 1170.17 380.797 1173.05 383.121C1172.96 383.058 1174.47 384.582 1174.33 384.598C1173.96 384.637 1172.55 382.674 1172.83 382.517C1173.57 382.1 1174.95 385.336 1175.04 385.697C1175.43 385.532 1175.83 385.367 1176.23 385.202C1175.02 384.676 1172.88 383.129 1171.44 383.914C1170.15 384.613 1170.36 386.851 1170.82 387.959C1170.89 388.124 1171.07 388.147 1171.22 388.155C1172.83 388.257 1174.37 387.472 1175.77 386.741C1175.42 386.702 1175.06 386.663 1174.7 386.632C1174.28 387.864 1173.46 388.775 1172.25 389.357C1172.53 389.49 1172.8 389.616 1173.07 389.749C1174.39 388.932 1175.21 387.967 1175.83 386.529C1176.03 386.058 1174.89 386.341 1174.77 386.42C1172.35 387.81 1170.37 389.561 1168.67 391.767C1169.1 391.744 1169.52 391.72 1169.94 391.697C1170.09 390.283 1170.38 389.042 1170.9 387.723C1170.46 387.778 1170.02 387.833 1169.58 387.888C1169.46 389.309 1169.25 390.197 1168.52 391.516C1168.95 391.461 1169.37 391.406 1169.79 391.351C1169.53 390.762 1169.25 390.173 1168.99 389.592C1168.79 389.16 1167.52 389.498 1167.67 389.945C1168.73 393.244 1170.08 396.385 1171.73 399.44C1171.95 399.864 1173.23 399.503 1173.05 399.086C1171.74 396.079 1170.85 393 1170.37 389.757C1169.93 389.875 1169.49 389.993 1169.05 390.11C1170.31 393.173 1171.37 396.291 1172.21 399.487C1172.33 399.942 1173.63 399.605 1173.53 399.133C1173.01 396.526 1172.48 393.927 1171.95 391.32C1171.51 391.438 1171.07 391.555 1170.64 391.673C1171.54 395.733 1172.44 399.785 1173.34 403.845C1173.78 403.727 1174.22 403.61 1174.66 403.492C1172.15 398.725 1169.95 393.833 1168.06 388.791C1167.89 388.343 1166.67 388.665 1166.74 389.144C1166.9 390.181 1167.05 391.226 1167.21 392.262C1167.64 392.121 1168.06 391.972 1168.48 391.83C1167.68 390.951 1167.9 389.702 1166.47 389.969C1166.22 390.016 1165.8 390.126 1165.72 390.417C1165.44 391.516 1165.64 392.686 1165.69 393.817C1165.7 394.233 1167.03 393.974 1167.01 393.464C1166.91 391.241 1166.81 389.011 1166.72 386.789C1166.7 386.365 1165.43 386.647 1165.4 387.048C1165.22 389.404 1165.06 391.76 1164.89 394.108C1165.33 394.021 1165.77 393.935 1166.21 393.848C1165.97 391.39 1165.73 388.94 1165.49 386.482C1165.05 386.6 1164.61 386.718 1164.17 386.836C1164.38 388.328 1164.6 389.82 1164.81 391.312C1164.87 391.744 1166.12 391.445 1166.13 391.053C1166.14 389.561 1166.18 384.645 1167.68 383.789C1170.23 382.328 1172.92 385.399 1174.48 387.063C1174.86 386.867 1175.24 386.679 1175.62 386.482C1174.13 385.595 1172.83 384.582 1171.6 383.365C1171.22 383.561 1170.84 383.75 1170.46 383.946C1172.04 384.778 1173.62 385.619 1175.21 386.451C1175.56 386.239 1175.9 386.027 1176.26 385.815C1174.22 384.88 1172.28 383.82 1170.38 382.619C1170.03 382.831 1169.68 383.043 1169.33 383.255C1170.06 383.53 1170.7 383.954 1171.25 384.519C1172.65 385.776 1171.67 386.404 1168.33 386.412C1167.94 386.223 1166.73 386.781 1167.27 387.048C1168.88 387.849 1171.33 388.179 1172.79 386.765C1174.53 385.077 1171.87 383.31 1170.38 382.611C1170.03 382.446 1168.78 382.894 1169.33 383.247C1171.22 384.448 1173.16 385.509 1175.21 386.443C1175.57 386.616 1176.82 386.098 1176.26 385.807C1174.68 384.975 1173.1 384.134 1171.51 383.302C1171.24 383.153 1169.99 383.498 1170.38 383.883C1171.67 385.163 1173.01 386.192 1174.57 387.118C1174.85 387.283 1176.07 386.93 1175.71 386.537C1174.11 384.833 1171 381.417 1168.25 382.265C1165.11 383.231 1164.84 388.697 1164.81 391.21C1165.25 391.123 1165.69 391.037 1166.13 390.951C1165.92 389.459 1165.7 387.967 1165.49 386.475C1165.43 386.027 1164.12 386.341 1164.17 386.828C1164.41 389.286 1164.64 391.736 1164.89 394.194C1164.93 394.626 1166.18 394.327 1166.21 393.935C1166.38 391.579 1166.54 389.223 1166.72 386.875C1166.28 386.961 1165.84 387.048 1165.4 387.134C1165.49 389.357 1165.59 391.587 1165.69 393.809C1166.13 393.691 1166.57 393.574 1167.01 393.456C1166.96 392.451 1166.79 391.226 1167.04 390.244C1166.79 390.393 1166.54 390.542 1166.28 390.692C1166.35 390.684 1167.05 392.129 1167.24 392.341C1167.51 392.639 1168.59 392.372 1168.51 391.909C1168.36 390.872 1168.2 389.828 1168.04 388.791C1167.6 388.909 1167.16 389.027 1166.72 389.144C1168.62 394.186 1170.82 399.086 1173.33 403.845C1173.55 404.254 1174.76 403.979 1174.65 403.492C1173.74 399.432 1172.84 395.38 1171.94 391.32C1171.84 390.864 1170.53 391.194 1170.62 391.673C1171.15 394.28 1171.67 396.88 1172.2 399.487C1172.64 399.369 1173.08 399.251 1173.52 399.133C1172.67 395.937 1171.62 392.82 1170.35 389.757C1170.17 389.317 1168.96 389.631 1169.03 390.11C1169.53 393.354 1170.41 396.432 1171.71 399.44C1172.15 399.322 1172.59 399.204 1173.03 399.086C1171.39 396.039 1170.04 392.89 1168.97 389.592C1168.53 389.71 1168.09 389.828 1167.65 389.945C1167.92 390.534 1168.19 391.123 1168.46 391.705C1168.65 392.113 1169.56 391.862 1169.73 391.54C1170.42 390.291 1170.77 389.152 1170.89 387.723C1170.93 387.142 1169.71 387.527 1169.57 387.888C1169.04 389.207 1168.75 390.448 1168.61 391.862C1168.55 392.451 1169.71 392.027 1169.88 391.791C1171.48 389.71 1173.29 388.116 1175.57 386.812C1175.21 386.773 1174.85 386.734 1174.5 386.702C1174.1 387.864 1173.34 388.752 1172.24 389.364C1171.47 389.843 1172.64 389.985 1173.05 389.757C1174.48 388.964 1175.35 387.982 1176.01 386.475C1176.21 386.003 1175.06 386.294 1174.94 386.365C1173.96 387.33 1172.94 387.542 1171.88 387.001C1171.48 386.129 1171.56 385.438 1172.13 384.935C1172.88 384.511 1174.29 385.485 1175.17 385.87C1175.44 385.988 1176.47 385.846 1176.35 385.375C1175.84 383.349 1173.43 380.231 1171.2 382.038C1171.12 382.1 1171.04 382.218 1171.07 382.32C1171.55 384.221 1173.84 386.812 1175.88 385.603C1176 385.532 1176.17 385.391 1176.13 385.234C1175.65 383.168 1172.46 380.428 1170.26 381.582C1170.11 381.661 1170.01 381.786 1170.01 381.951C1170.02 383.435 1171.27 384.174 1172.53 384.566C1172.76 384.645 1173.9 384.338 1173.55 383.946C1172.4 382.697 1170.1 380.365 1168.21 381.566C1167.31 382.132 1167.17 383.2 1166.87 384.15C1166.07 386.639 1165.33 389.144 1164.56 391.642C1165 391.555 1165.44 391.469 1165.88 391.383C1165.66 390.33 1165.45 389.27 1165.23 388.218C1165.14 387.762 1163.84 388.092 1163.91 388.571C1164.05 389.514 1164.28 390.11 1164.76 390.911C1164.96 391.241 1166 390.935 1166.03 390.574C1166.21 388.289 1166.39 385.995 1166.57 383.71C1166.13 383.797 1165.69 383.883 1165.25 383.969C1165.62 386.145 1166.03 388.265 1166.76 390.354C1166.93 390.833 1168.09 390.464 1168.08 390C1168.07 387.283 1168.04 384.558 1168.03 381.841C1167.59 381.959 1167.15 382.077 1166.71 382.195C1167.01 384.896 1167.43 387.558 1167.99 390.22C1168.09 390.692 1169.32 390.33 1169.31 389.867C1169.23 387.362 1169.15 384.865 1169.08 382.36C1168.64 382.477 1168.2 382.595 1167.76 382.713C1168.35 384.872 1168.93 387.04 1169.52 389.199C1169.65 389.678 1170.85 389.309 1170.84 388.846C1170.78 386.859 1170.74 384.88 1170.68 382.894C1170.24 383.011 1169.8 383.129 1169.36 383.247C1169.65 385.139 1170.21 386.804 1171.14 388.485C1171.37 388.901 1172.51 388.634 1172.46 388.131C1172.24 386.168 1172.03 384.205 1171.81 382.242C1171.37 382.36 1170.93 382.477 1170.49 382.595C1171.04 384.511 1171.6 386.42 1172.16 388.336C1172.29 388.791 1173.57 388.453 1173.48 387.982C1173.19 386.467 1173.12 385.006 1173.27 383.475C1172.88 383.608 1172.48 383.742 1172.09 383.875C1172.87 384.229 1173.52 384.747 1174.01 385.43C1174.3 385.76 1175.57 385.328 1175.24 384.912C1174.77 384.323 1174.95 384.464 1174.25 384.166C1174.02 384.072 1172.86 384.213 1173.06 384.66C1173.5 385.611 1173.9 386.192 1174.71 386.899C1174.98 387.134 1176.12 386.954 1175.98 386.467C1175.43 384.496 1173.96 383.459 1171.94 383.506C1171.46 383.498 1170.56 384.26 1171.44 384.236Z" fill="#272525"/>
<path d="M1499.66 397.126C1500.4 386.415 1496.99 377.206 1487.27 372.029C1476.19 366.122 1463.6 363.751 1452.61 357.643C1441.92 351.706 1433.06 341.335 1425.55 331.816C1418.06 322.329 1411.69 312.005 1406.56 301.076C1396.53 279.668 1389.16 253.671 1391.49 229.875C1394.09 203.196 1408.26 178.967 1425.62 159.14C1461.93 117.703 1529.35 102.092 1579.28 126.864C1591.34 132.848 1602.05 140.77 1612.47 149.234C1616.75 152.706 1620.93 156.349 1624.51 160.55C1626.95 163.418 1628.68 166.426 1630.65 169.619C1632.59 172.75 1635.09 175.386 1636.99 178.61C1644.71 191.601 1647.47 205.32 1649.56 220.125C1650.6 227.472 1651.36 234.867 1651.87 242.261C1652.42 250.09 1653.41 258.523 1652.48 266.32C1650.91 279.435 1644.36 293.387 1638.43 305.029C1632.53 316.624 1625.37 327.584 1617.17 337.676C1608.39 348.481 1598.41 358.278 1587.56 366.991C1577.81 374.819 1567.45 379.594 1569.28 393.949C1569.42 395.111 1572.92 394.321 1572.75 393.018C1571.62 384.105 1575.43 378.71 1582.39 373.641C1587.4 369.998 1592.24 366.138 1596.9 362.076C1606.1 354.046 1614.58 345.195 1622.13 335.614C1636.74 317.059 1647.81 295.759 1654.32 273.048C1658.34 259.066 1655.78 242.819 1654.22 228.511C1652.56 213.366 1650.76 197.461 1643.75 183.741C1640.62 177.618 1636.73 172.502 1633.1 166.782C1629.74 161.48 1626.02 156.892 1621.35 152.66C1611.82 143.994 1601.25 136.011 1590.11 129.531C1546.01 103.828 1486.62 109.843 1445.23 138.553C1424.09 153.218 1406.94 175.169 1396.6 198.654C1385.63 223.535 1386.2 248.819 1393.16 274.692C1400.17 300.75 1413.47 324.856 1432.1 344.404C1436.75 349.287 1441.62 354.263 1447.37 357.844C1453.64 361.751 1460.58 364.216 1467.49 366.681C1474.14 369.052 1481.17 371.331 1487.15 375.176C1494.72 380.028 1496.79 389.127 1496.22 397.576C1496.1 398.971 1499.58 398.289 1499.66 397.126Z" fill="#272525"/>
<path d="M1496.38 397.607C1499.89 402.257 1508.2 402.459 1513.44 402.97C1521.33 403.73 1528.86 404.381 1536.64 402.629C1545.06 400.738 1553.62 400.227 1562.02 398.273C1565.86 397.374 1570.53 396.46 1572.11 392.476C1572.56 391.359 1569.09 391.762 1568.64 392.91C1567.15 396.677 1558.65 397.002 1555.31 397.824C1549.74 399.203 1543.9 399.11 1538.27 400.413C1531.15 402.056 1524.88 401.839 1517.71 401.25C1512.46 400.816 1503.16 400.971 1499.59 396.258C1498.91 395.312 1495.55 396.506 1496.38 397.607Z" fill="#272525"/>
<path d="M1496.03 395.84C1491.94 400.816 1493.72 411.9 1494.31 417.713C1495.04 424.906 1495.16 434.998 1498.98 441.385C1502.74 447.663 1509.98 450.019 1516.66 451.725C1524.74 453.786 1533.65 455.879 1542.02 455.492C1548.94 455.166 1556.81 453.151 1562.77 449.554C1569.8 445.291 1573.18 440.548 1574.95 432.518C1576.58 425.154 1576.67 417.016 1576.08 409.544C1575.68 404.35 1575.52 396.801 1572.42 392.491C1571.77 391.577 1569.34 392.46 1569.08 393.391C1569.03 393.561 1568.98 393.732 1568.94 393.902C1569.43 393.546 1569.94 393.173 1570.44 392.817C1570.35 392.848 1570.25 392.863 1570.16 392.894C1568.08 393.437 1568.53 395.173 1570.63 394.631C1571.68 394.352 1572.25 394.011 1572.56 392.956C1571.45 393.251 1570.33 393.561 1569.22 393.856C1571.7 397.313 1572.13 403.823 1572.47 407.931C1572.98 414.318 1572.67 420.519 1572.28 426.906C1571.82 434.502 1569.87 441.896 1563.48 446.562C1555.87 452.128 1545.3 454.406 1535.99 453.228C1529.62 452.422 1522.82 451.027 1516.66 449.229C1510.07 447.307 1503.38 444.33 1500.99 437.308C1498.98 431.355 1498.56 424.131 1497.92 417.946C1497.32 412.148 1495.15 400.971 1499.29 395.933C1500.23 394.739 1496.76 394.956 1496.03 395.84Z" fill="#272525"/>
<path d="M1503.32 446.95C1502.08 450.531 1503.16 456.593 1504.11 460.205C1505.02 463.693 1506.85 466.095 1510.31 467.18C1514.85 468.607 1520.03 468.545 1524.71 468.886C1530.17 469.289 1535.81 469.692 1541.27 469.242C1545.87 468.855 1550.34 467.382 1554.86 466.514C1557.9 465.94 1561.62 465.491 1564.35 463.925C1571.87 459.631 1571.05 450.469 1571.05 443.09C1571.05 442.021 1567.57 442.672 1567.57 444.02C1567.57 452.578 1568.23 461.662 1557.73 464.018C1550.91 465.553 1543.72 467.429 1536.76 467.351C1529.86 467.273 1522.29 467.335 1515.53 465.832C1510.31 464.669 1508.05 462.53 1507.27 457.275C1506.79 454.066 1505.71 449.632 1506.78 446.516C1507.19 445.338 1503.72 445.772 1503.32 446.95Z" fill="#272525"/>
<path d="M1519.38 457.693C1519.32 457.647 1519.26 457.6 1519.19 457.554C1518.2 458.065 1517.19 458.561 1516.2 459.073C1518.4 460.266 1520.74 460.933 1523.24 460.607C1523.94 460.514 1524.96 460.173 1525.21 459.429C1525.27 459.243 1525.33 459.057 1525.4 458.887C1525.44 458.716 1525.4 458.561 1525.27 458.422C1523.49 456.623 1520.51 455.879 1518.33 454.608C1516.08 453.29 1514.09 451.368 1511.72 450.361C1510.81 450.919 1509.88 451.477 1508.96 452.035C1512.13 453.275 1515.09 455.6 1518.62 454.81C1519.19 454.686 1520.22 454.205 1520.12 453.477C1519.88 451.57 1515.44 449.4 1514.13 448.64C1512.7 447.818 1511.18 446.95 1509.54 447.818C1504.62 450.423 1512.11 456.453 1514.54 457.988C1515.3 458.468 1518.34 457.647 1517.54 456.468C1515.57 453.554 1512.51 451.291 1509.58 449.4C1508.82 448.903 1507.41 449.461 1506.81 449.958C1503.31 452.794 1510.95 462.003 1514.14 462.499C1514.75 462.592 1517.38 462.204 1516.95 461.088C1515.6 457.631 1513.49 453.709 1509.69 452.639C1508.75 452.376 1507.3 452.888 1506.89 453.802C1504.59 458.84 1511.99 465.367 1516.78 465.506C1521.29 465.63 1520.62 462.468 1518.45 459.817C1516.09 456.934 1512.59 455.802 1510.58 459.739C1508.79 463.212 1511.06 465.382 1514.5 464.157C1515.02 463.971 1515.55 463.568 1515.55 462.979C1515.54 460.964 1512.42 459.538 1511.26 457.91C1509.55 455.461 1509.41 452.376 1507.83 450.082C1507.24 449.229 1504.02 450.19 1504.48 451.229C1506.72 456.143 1519.94 473.908 1525.29 462.654C1529.21 454.391 1514.03 455.879 1510.2 458.732C1509.63 459.15 1509.83 459.863 1510.53 459.956C1513.66 460.375 1516.71 461.181 1519.85 461.6C1522.68 461.972 1525.5 461.786 1528.31 462.53C1528.88 461.894 1529.47 461.243 1530.05 460.607C1525.55 460.22 1520.05 456.592 1516.17 454.36C1515.4 453.911 1512.39 454.655 1513.18 455.879C1514.78 458.36 1519.47 459.197 1522.06 459.522C1524.2 459.786 1529.64 458.871 1531.13 460.142C1531.6 459.631 1532.05 459.104 1532.51 458.592C1529.83 459.228 1519.61 455.29 1517.01 453.182C1516.25 453.74 1515.49 454.298 1514.71 454.841C1517.91 454.701 1521.35 455.941 1524.48 456.53C1526.68 456.949 1529.88 456.809 1531.86 457.926C1532.25 457.352 1532.62 456.794 1533.01 456.22C1528.46 457.414 1522.67 453.864 1518.19 453.259C1517.52 453.166 1514.14 454.407 1515.74 455.042C1522.14 457.616 1529.69 456.112 1536.03 458.515C1536.65 458.639 1537.27 458.763 1537.87 458.887C1538.94 460.452 1538.7 461.15 1537.15 460.995C1535.94 461.941 1532.14 461.708 1530.74 461.832C1526.08 462.204 1521.71 461.724 1517.06 461.305C1516.61 461.956 1516.16 462.623 1515.71 463.274C1522.39 463.801 1529.39 463.615 1536 464.374C1536.28 463.77 1536.56 463.165 1536.84 462.561C1529.43 464.886 1521.29 462.437 1513.75 463.15C1513.16 463.212 1511.21 463.878 1511.91 464.793C1513.58 467.025 1518.39 466.715 1520.84 466.793C1523.94 466.901 1527.07 466.7 1530.15 466.514C1531.29 466.452 1534.51 465.584 1535.6 466.095C1535.83 465.584 1536.06 465.057 1536.29 464.545C1531.3 466.436 1525.1 465.894 1520.5 468.824C1519.21 469.645 1520.19 470.389 1521.33 470.296C1528.25 469.723 1534.73 465.987 1541.22 463.801C1544.59 462.669 1550.59 462.08 1552.8 459.104C1553.31 458.422 1552.35 458.127 1551.86 458.081C1543.38 457.414 1534.81 460.933 1526.39 461.646C1526.39 462.251 1526.39 462.871 1526.39 463.475C1536.11 461.119 1546.09 459.77 1555.83 457.461C1557.93 456.965 1557.45 455.244 1555.36 455.724C1549.98 456.934 1544.73 457.771 1539.27 458.468C1537.66 458.67 1529.91 460.545 1528.76 459.507C1528.29 460.018 1527.84 460.545 1527.38 461.057C1534.11 459.631 1541.38 459.894 1548.17 460.452C1549.5 460.561 1551.86 458.67 1549.52 458.484C1542.12 457.879 1534.22 457.771 1526.9 459.321C1526.53 459.398 1524.79 460.204 1525.52 460.871C1527.5 462.7 1533.67 461.026 1535.95 460.747C1542.66 459.941 1549.21 458.949 1555.81 457.461C1555.66 456.887 1555.5 456.298 1555.35 455.724C1545.61 458.034 1535.64 459.383 1525.91 461.739C1524.29 462.127 1523.83 463.739 1525.91 463.568C1534.01 462.886 1542.35 459.414 1550.49 460.065C1550.18 459.724 1549.87 459.383 1549.55 459.042C1549.89 458.592 1550.51 459.042 1549.72 458.918C1549.16 458.825 1548 459.507 1547.5 459.693C1544.57 460.731 1541.63 461.724 1538.68 462.762C1533.22 464.7 1527.63 467.893 1521.78 468.389C1522.06 468.886 1522.34 469.382 1522.62 469.862C1526.82 467.196 1532.94 467.754 1537.63 465.971C1538.12 465.785 1539.3 464.871 1538.32 464.421C1536.68 463.661 1534.9 464.266 1533.18 464.436C1529.81 464.778 1517.52 466.684 1515.09 463.444C1514.47 463.987 1513.85 464.545 1513.24 465.088C1521.13 464.328 1529.5 466.746 1537.27 464.312C1537.91 464.111 1539.78 462.7 1538.11 462.499C1531.22 461.693 1524 461.863 1517.04 461.305C1515.71 461.197 1513.35 463.072 1515.69 463.274C1522.85 463.909 1529.5 464.157 1536.65 462.917C1539.46 462.437 1542.68 462.096 1543.87 459.166C1543.92 458.995 1543.87 458.84 1543.75 458.701C1541.89 456.344 1537.1 456.453 1534.42 456.065C1529.26 455.321 1523.36 455.337 1518.48 453.368C1517.66 453.957 1516.85 454.562 1516.03 455.151C1521.8 455.941 1527.55 459.507 1533.46 457.972C1534.05 457.817 1535.74 456.902 1534.6 456.267C1532.36 454.98 1529.08 455.135 1526.59 454.67C1523.12 454.019 1519.6 452.732 1516.05 452.903C1515.63 452.918 1512.73 453.725 1513.75 454.562C1516.56 456.825 1521.01 457.957 1524.33 459.367C1527.38 460.669 1529.7 461.119 1532.94 460.359C1533.29 460.282 1535.08 459.46 1534.32 458.809C1529.86 455.027 1520.26 460.638 1516.36 454.562C1515.37 455.073 1514.36 455.569 1513.37 456.081C1518 458.747 1523.21 462.158 1528.65 462.623C1529.57 462.7 1532.32 461.212 1530.39 460.7C1526.62 459.693 1522.67 459.894 1518.82 459.228C1517.16 458.949 1515.68 458.391 1514.19 458.856C1512.33 459.429 1515.82 459.042 1515.99 459.073C1517.52 459.321 1521.5 459.166 1522.45 461.042C1521.12 463.816 1519.74 464.421 1518.31 462.855C1517.64 462.421 1517.06 461.925 1516.51 461.336C1513.38 458.422 1509.68 454.267 1507.91 450.361C1506.79 450.748 1505.68 451.12 1504.56 451.508C1505.77 453.275 1506.02 456.019 1507.15 457.972C1508.1 459.615 1512 462.297 1512.02 463.987C1512.37 463.599 1512.71 463.196 1513.07 462.809C1515.44 461.972 1512.17 459.042 1515.16 461.243C1516.09 461.925 1517.13 463.522 1516.64 464.684C1517.29 464.297 1517.95 463.894 1518.61 463.506C1514.67 464.002 1508.5 457.383 1510.3 453.446C1509.37 453.833 1508.44 454.221 1507.49 454.608C1510.47 455.445 1512.4 459.553 1513.4 462.096C1514.33 461.631 1515.26 461.15 1516.2 460.685C1514.3 460.39 1507.66 452.097 1509.52 450.593C1508.59 450.779 1507.68 450.965 1506.75 451.151C1509.44 452.887 1512.44 455.228 1514.23 457.895C1515.23 457.383 1516.23 456.887 1517.23 456.375C1516.09 455.662 1510.81 450.888 1511.85 450.655C1512.22 450.578 1516.56 454.345 1516.57 454.469C1517.07 454.019 1517.58 453.585 1518.08 453.135C1516.59 453.476 1513.09 450.981 1511.66 450.423C1510.65 450.035 1507.43 451.477 1508.9 452.097C1510.44 452.748 1521.67 459.91 1521.67 459.925C1522.33 459.538 1522.99 459.135 1523.64 458.747C1521.94 458.84 1520.36 458.406 1518.88 457.461C1518.09 457.027 1514.87 458.205 1515.89 458.98C1515.95 459.026 1516.02 459.073 1516.08 459.119C1517.13 459.801 1520.33 458.437 1519.38 457.693Z" fill="#272525"/>
<path d="M1551.09 461.041C1547.04 462.203 1542.95 463.009 1538.76 463.443C1536.5 463.676 1534.2 463.474 1532.03 464.141C1531.37 464.343 1529.54 465.707 1531.2 465.955C1539.97 467.257 1550.37 465.815 1559.02 464.203C1559.69 464.079 1562.23 462.699 1560.33 462.296C1556.26 461.444 1551.41 461.506 1547.29 461.599C1544.65 461.661 1542.27 461.723 1540.19 463.459C1540.03 463.583 1539.74 463.955 1539.85 464.203C1542.98 471.086 1565.21 465.738 1562.54 460.948C1560.93 458.049 1550.62 459.273 1548.65 459.475C1543.83 459.971 1535.45 461.273 1532.19 465.459C1531.82 465.939 1532.28 466.358 1532.75 466.435C1538.33 467.489 1544.13 464.87 1549.26 462.932C1553.58 461.289 1560.33 459.63 1563.49 455.909C1563.88 455.46 1563.38 454.995 1562.93 454.933C1557.57 454.096 1551.72 456.002 1546.39 456.778C1543.1 457.258 1538.81 456.747 1535.88 458.545C1534.58 459.335 1535.57 460.141 1536.72 460.017C1542.03 459.459 1547.46 458.545 1552.75 457.599C1554.68 457.258 1558 456.917 1558.98 454.871C1559.15 454.53 1559.16 454.158 1558.74 453.987C1552.37 451.429 1544.06 453.925 1537.51 454.251C1537.35 454.871 1537.21 455.491 1537.06 456.111C1544.17 454.437 1551.49 453.6 1558.76 453.026C1558.48 452.53 1558.2 452.034 1557.92 451.553C1553.63 454.452 1545.68 455.196 1542.99 460.11C1542.48 461.041 1543.75 461.18 1544.37 461.103C1548.76 460.653 1552.96 458.498 1556.71 456.281C1558.34 455.305 1562.71 453.414 1562.85 451.119C1562.91 450.143 1561.46 450.344 1560.88 450.468C1555.61 451.646 1551.41 455.894 1546.2 457.134C1546.51 457.661 1546.82 458.188 1547.12 458.715C1552.56 456.018 1562.37 454.716 1566.23 449.538C1566.57 449.073 1566.15 448.624 1565.67 448.562C1563.38 448.236 1561.49 449.476 1560.43 451.538C1559.95 452.483 1561.18 452.577 1561.81 452.53C1564.42 452.375 1565.75 450.515 1566.87 448.298C1567.64 446.732 1564.23 447.414 1563.63 448.22C1561.3 451.367 1559.81 455.041 1557.52 458.235C1558.6 458.266 1559.67 458.281 1560.76 458.312C1561.95 456.002 1565.13 449.941 1567.55 448.732C1566.74 448.654 1565.94 448.561 1565.13 448.484C1565.97 453.135 1561.19 458.064 1558.45 461.382C1559.57 461.32 1560.68 461.258 1561.8 461.196C1562.67 457.909 1565.24 451.817 1568.22 449.74C1567.32 449.802 1566.42 449.848 1565.52 449.91C1567.18 452.499 1564.06 459.366 1562.5 461.444C1563.58 461.475 1564.65 461.49 1565.74 461.521C1566.25 460.529 1566.74 459.537 1567.21 458.514C1567.84 457.196 1565.53 457.491 1564.9 457.77C1560 459.893 1555.54 463.118 1550.23 464.234C1550.88 464.374 1551.55 464.498 1552.2 464.637C1551.29 462.436 1567.12 455.057 1567.39 454.948C1566.7 454.623 1566.01 454.282 1565.32 453.956C1563.26 455.816 1560.71 457.305 1558.31 458.7C1556.78 460.219 1555.02 460.777 1553.04 460.359C1554.31 458.901 1555.8 457.739 1557.49 456.871C1559.55 455.677 1556.43 455.258 1555.33 455.847C1552.25 457.46 1548.62 459.01 1545.26 459.878C1541.86 460.762 1539.86 461.025 1543.94 460.327C1549.78 459.32 1555.37 456.948 1561.32 456.514C1561.32 455.909 1561.32 455.289 1561.32 454.685C1555.02 456.204 1548.98 457.909 1542.48 458.56C1540.24 458.793 1534.96 459.568 1539.49 458.064C1541.01 457.553 1542.61 457.212 1544.17 456.84C1549.47 455.615 1554.88 454.933 1560.2 453.724C1559.77 453.259 1559.33 452.794 1558.88 452.344C1555.32 454.251 1551.52 454.778 1547.6 455.336C1544.96 455.708 1540.14 457.103 1537.65 455.801C1537.41 456.312 1537.18 456.84 1536.95 457.351C1540.27 456.049 1544.54 456.514 1548.06 456.018C1552.22 455.429 1556.34 454.483 1560.57 454.778C1560.26 454.437 1559.95 454.096 1559.63 453.755C1557.21 458.328 1545.99 460.87 1541.51 462.234C1539.52 462.839 1537.49 463.118 1536.08 464.746C1535.68 465.195 1536.19 465.66 1536.64 465.722C1542.42 466.668 1547.89 464.715 1553.6 463.986C1553.44 463.428 1553.3 462.87 1553.15 462.312C1546.99 464.668 1539.46 465.211 1532.93 465.18C1532.08 465.18 1529.21 466.838 1531.2 467.102C1535.27 467.675 1539.4 467.737 1543.48 467.164C1543.2 466.668 1542.92 466.187 1542.64 465.691C1540.89 466.59 1536.38 466.947 1534.41 466.931C1533.54 466.931 1530.7 468.621 1532.67 468.854C1539.79 469.737 1546.44 468.513 1552.99 465.66C1556.71 464.048 1564.65 460.808 1565.49 456.188C1565.77 454.607 1562.57 455.878 1562.14 456.374C1561.86 456.685 1561.58 456.995 1561.32 457.305C1560.33 458.421 1563.81 458.219 1564.56 457.382C1564.84 457.072 1565.12 456.762 1565.38 456.452C1564.26 456.514 1563.15 456.576 1562.03 456.638C1561.38 460.265 1554.45 463.025 1551.64 464.25C1546.25 466.59 1540.7 467.722 1534.82 466.993C1534.25 467.629 1533.66 468.28 1533.09 468.916C1536.89 468.947 1541.41 468.497 1544.82 466.745C1546.19 466.048 1545.09 465.118 1543.99 465.273C1540.53 465.753 1536.81 465.722 1533.35 465.242C1532.78 465.877 1532.19 466.528 1531.62 467.164C1539.18 467.21 1547.44 466.482 1554.54 463.753C1556.08 463.164 1555.68 461.878 1554.09 462.079C1550.58 462.529 1547.1 463.381 1543.6 463.939C1537.44 464.916 1541.03 464.451 1542.33 463.908C1543.92 463.242 1545.63 462.823 1547.26 462.25C1552 460.575 1560.29 458.715 1562.88 453.863C1563.26 453.15 1562.56 452.887 1561.94 452.84C1557.07 452.499 1552.39 453.615 1547.6 454.251C1543.61 454.778 1539.37 454.468 1535.58 455.956C1535.06 456.173 1533.94 457.01 1534.89 457.506C1538.34 459.32 1543.55 457.801 1547.13 457.289C1552.03 456.592 1556.65 455.754 1561.05 453.398C1562.81 452.468 1560.76 451.786 1559.74 452.018C1556.14 452.84 1533.01 454.824 1533.63 460.002C1533.66 460.281 1534.1 460.436 1534.3 460.483C1543.32 462.219 1553.1 458.529 1561.78 456.436C1563.4 456.049 1563.84 454.452 1561.78 454.607C1556.3 455.01 1550.84 456.762 1545.51 458.095C1542.85 458.746 1539.24 459.242 1537.57 461.645C1537.24 462.11 1537.62 462.56 1538.13 462.622C1544.51 463.366 1552.02 459.769 1557.49 456.902C1556.78 456.561 1556.05 456.219 1555.33 455.878C1553.3 457.057 1546.23 461.428 1550.25 463.536C1552.06 464.498 1556.93 461.707 1558.31 460.994C1561.71 459.227 1565.26 457.15 1568.11 454.576C1569.53 453.274 1566.7 453.336 1566.03 453.584C1563.94 454.375 1547.15 461.847 1548.73 465.645C1549.02 466.358 1550.13 466.172 1550.7 466.048C1556.37 464.854 1561.04 461.552 1566.26 459.273C1565.49 459.025 1564.73 458.777 1563.95 458.529C1563.49 459.537 1562.99 460.545 1562.48 461.537C1561.69 463.102 1565.12 462.405 1565.72 461.614C1567.88 458.762 1570.96 452.127 1568.73 448.639C1568.28 447.926 1566.51 448.468 1566.03 448.809C1562.14 451.522 1559.49 457.227 1558.29 461.723C1557.89 463.226 1561.22 462.048 1561.64 461.537C1564.71 457.832 1569.5 452.824 1568.57 447.631C1568.42 446.763 1566.57 447.166 1566.15 447.383C1562.34 449.29 1559.36 454.685 1557.5 458.312C1556.71 459.847 1560.14 459.211 1560.74 458.39C1563.04 455.196 1564.51 451.522 1566.85 448.375C1565.77 448.344 1564.7 448.329 1563.61 448.298C1563.5 448.53 1562.51 450.67 1562.28 450.685C1562.74 451.011 1563.19 451.352 1563.66 451.677C1565.01 449.073 1556.59 453.011 1555.99 453.259C1552.57 454.685 1549.06 455.708 1545.74 457.351C1543.91 458.25 1545.01 459.335 1546.65 458.932C1551.88 457.677 1556.09 453.429 1561.33 452.266C1560.68 452.049 1560.02 451.832 1559.36 451.615C1559.16 454.902 1546.54 459.056 1544.84 459.242C1545.3 459.568 1545.75 459.909 1546.22 460.234C1548.62 455.847 1556.17 455.274 1560.06 452.639C1561.32 451.786 1560.39 451.073 1559.23 451.166C1551.63 451.77 1544 452.701 1536.58 454.437C1535.49 454.685 1534.22 456.39 1536.13 456.297C1539.1 456.157 1542.03 455.723 1544.99 455.429C1547.16 455.227 1550.16 454.933 1552.42 455.181C1553.41 455.289 1555.19 454.84 1553.52 455.661C1552.17 456.328 1549.89 456.188 1548.37 456.406C1544.64 456.917 1540.9 457.754 1537.15 458.157C1537.43 458.653 1537.71 459.149 1537.99 459.63C1539.34 458.808 1544.41 458.963 1545.86 458.746C1549.15 458.266 1552.54 457.506 1555.86 457.289C1557.4 457.181 1558.73 456.297 1557.07 457.677C1556.03 458.545 1554.31 458.901 1553.07 459.444C1548.93 461.227 1544.44 463.304 1540 464.172C1536.62 464.839 1537.06 464.358 1539.94 463.304C1542.23 462.467 1544.62 461.878 1547.06 461.568C1547.74 461.475 1558.11 460.436 1558.79 462.002C1559.38 463.366 1554.36 464.978 1553.49 465.118C1551.3 465.583 1549.07 465.629 1546.82 465.226C1546.82 464.684 1546.82 464.156 1546.84 463.614C1548.89 462.746 1556.09 463.831 1558.17 464.25C1558.61 463.614 1559.04 462.978 1559.47 462.343C1551.33 463.862 1541.51 465.35 1533.29 464.141C1533.01 464.746 1532.73 465.35 1532.45 465.955C1535.04 465.164 1538.41 465.474 1541.09 465.102C1544.62 464.622 1548.06 463.831 1551.49 462.854C1553.61 462.188 1553.18 460.436 1551.09 461.041Z" fill="#272525"/>
<path d="M1493.41 407.063C1496.2 407.59 1499.1 410.272 1501.92 411.078C1505.53 412.117 1509.44 412.535 1513.16 412.892C1520.98 413.636 1528.95 412.675 1536.81 412.969C1543.48 413.233 1550.39 414.302 1557 413C1561.85 412.039 1569.04 412.179 1573.26 409.342C1575.29 407.993 1572.17 407.761 1571.1 408.319C1570.81 408.474 1570.5 408.629 1570.2 408.784C1568.14 409.853 1571.21 410.396 1572.36 409.807C1572.65 409.652 1572.96 409.497 1573.26 409.342C1572.54 409.001 1571.82 408.66 1571.1 408.319C1569.37 409.481 1566.62 409.202 1564.67 409.512C1560.96 410.117 1557.37 411.295 1553.6 411.574C1547.09 412.039 1540.47 410.985 1533.94 410.97C1526.75 410.954 1519.48 411.497 1512.35 410.628C1508.8 410.194 1505 409.807 1501.72 408.319C1499.31 407.234 1498.13 405.668 1495.55 405.187C1494.43 404.97 1491.45 406.691 1493.41 407.063Z" fill="#272525"/>
<path d="M1497.33 420.721C1510.12 427.355 1527.1 425.635 1541.07 426.472C1548.06 426.89 1554.13 426.115 1561 425.17C1565.53 424.55 1570.29 424.751 1574.47 422.689C1575.91 421.992 1575.67 420.876 1574.02 421.015C1573.57 421.046 1573.12 421.093 1572.67 421.124C1572.05 421.17 1570.85 421.573 1570.71 422.302C1570.67 422.441 1570.64 422.596 1570.61 422.736C1570.35 424.053 1573.85 423.495 1574.08 422.302C1574.12 422.162 1574.15 422.007 1574.18 421.868C1573.53 422.255 1572.86 422.658 1572.21 423.046C1572.66 423.015 1573.11 422.968 1573.56 422.937C1573.4 422.379 1573.26 421.821 1573.11 421.263C1569.84 422.86 1565.08 422.705 1561.48 423.247C1555.02 424.209 1549 424.891 1542.43 424.503C1528.93 423.712 1512.45 425.449 1500.12 419.046C1499.09 418.519 1495.91 419.992 1497.33 420.721Z" fill="#272525"/>
<path d="M1496.8 435.029C1502.84 438.75 1509.43 440.625 1516.53 441.028C1523.91 441.447 1531.38 441.819 1538.76 442.113C1545.66 442.393 1552.9 442.191 1559.72 441.152C1564.05 440.486 1569.55 440.47 1573.25 437.974C1573.95 437.509 1574.25 436.781 1573.24 436.517C1573.11 436.486 1572.99 436.455 1572.87 436.409C1571.77 436.114 1568.79 437.773 1570.74 438.3C1570.87 438.331 1570.99 438.362 1571.12 438.408C1571.12 437.928 1571.1 437.432 1571.1 436.951C1568.26 438.843 1562.37 439.06 1558.95 439.463C1551.85 440.315 1544.36 440.501 1537.24 439.912C1524.41 438.843 1510.94 440.362 1499.54 433.339C1498.6 432.75 1495.39 434.161 1496.8 435.029Z" fill="#272525"/>
<path d="M1640.51 133.592C1640.83 133.855 1658.78 118.617 1660.5 117.175C1662.67 115.346 1664.75 113.408 1666.86 111.517C1667.93 110.556 1669.9 107.874 1671.12 107.611C1673.29 107.145 1672.92 108.262 1674.18 110.323C1675.31 112.184 1676.55 113.904 1677.79 115.687C1678.81 117.144 1682.13 120.88 1681.56 122.57C1681.79 122.71 1682.04 122.865 1682.27 123.004C1680.95 123.097 1679.65 123.283 1678.36 123.578C1674.38 124.43 1670.46 125.81 1666.53 126.988C1657.54 129.685 1648.15 133.917 1638.72 134.46C1637.51 134.538 1635.64 136.413 1637.81 136.413C1638.32 136.413 1638.85 136.413 1639.36 136.413C1640.66 136.413 1643.05 134.445 1640.71 134.445C1640.2 134.445 1639.67 134.445 1639.16 134.445C1638.85 135.096 1638.55 135.747 1638.24 136.398C1650.09 135.7 1661.93 130.243 1673.23 126.895C1676.35 125.965 1680.24 125.872 1683.2 124.663C1683.77 124.43 1684.44 124.368 1684.81 123.779C1686.48 121.237 1682.38 116.307 1681 114.338C1679.28 111.858 1676.89 105.192 1673.93 104.309C1671.26 103.518 1668.83 106.618 1667.28 108.091C1657.68 117.16 1646.66 124.57 1637.19 133.762C1636.97 133.979 1636.61 134.445 1636.97 134.724C1637.06 134.801 1637.16 134.879 1637.27 134.956C1638.23 135.731 1641.45 134.367 1640.51 133.592Z" fill="#272525"/>
<path d="M1384.48 160.008C1384.55 161.14 1384.47 160.907 1385.26 161.713C1386.25 161.202 1387.26 160.706 1388.25 160.194C1383.74 157.295 1378.98 155.016 1374.55 151.854C1370.78 149.157 1367.03 146.397 1363.18 143.824C1359.39 141.282 1355.34 139.065 1351.34 136.833C1349.59 135.856 1346.98 135.716 1347.93 132.957C1348.24 132.042 1351.71 130.291 1352.47 129.764C1356.58 126.849 1361.46 123.578 1366.25 121.935C1369.31 120.897 1369.57 122.338 1371.34 125.02C1372.84 127.299 1374.07 129.841 1375.21 132.321C1379.41 141.437 1381.44 151.265 1385.65 160.38C1386.19 161.543 1389.23 160.721 1389.12 159.45C1389.1 159.326 1389.1 159.202 1389.09 159.078C1388.99 157.946 1385.51 158.675 1385.61 160.008C1385.63 160.132 1385.63 160.256 1385.65 160.38C1386.81 160.07 1387.96 159.76 1389.12 159.45C1386.31 153.358 1384.64 147.064 1382.42 140.77C1380.11 134.197 1377.07 128.229 1373.71 122.152C1372.35 119.687 1371.66 117.998 1368.58 118.602C1366.02 119.098 1363.2 121.362 1360.92 122.524C1358.11 123.95 1355.32 125.392 1352.67 127.082C1350.3 128.601 1344.05 131.283 1343.74 134.352C1343.46 137.081 1349.43 139.034 1351.11 139.995C1357.82 143.824 1364.13 148.025 1370.38 152.552C1375.23 156.071 1380.47 158.675 1385.46 161.884C1386.2 162.364 1389.41 161.341 1388.45 160.365C1388.28 159.946 1388.1 159.512 1387.92 159.093C1387.89 157.962 1384.41 158.675 1384.48 160.008Z" fill="#272525"/>
<path d="M1367.05 280.412C1352.23 285.466 1336.9 283.916 1321.72 286.83C1319.18 287.326 1312.13 287.481 1310.42 289.946C1309.41 291.403 1310.22 291.868 1310.87 293.139C1312.48 296.302 1314.55 298.953 1315.74 302.487C1316.87 305.851 1317.07 310.641 1321.58 310.269C1325.77 309.928 1330.65 305.433 1333.92 303.107C1340.22 298.627 1346.9 294.814 1353.25 290.442C1356.57 288.148 1359.92 286.102 1363.67 284.567C1365.53 283.807 1367.07 283.358 1368.68 282.117C1370.23 280.924 1366.79 280.862 1365.89 281.544C1362.8 283.9 1357.83 285.032 1354.43 287.171C1349.86 290.055 1345.16 292.891 1340.71 295.93C1336.43 298.86 1332.22 302.007 1327.8 304.704C1325.49 306.115 1322.75 308.517 1320.34 305.495C1318.95 303.743 1318.42 299.247 1317.54 297.108C1316.79 295.31 1315.99 294.178 1314.95 292.612C1313.1 289.838 1314.11 290.334 1317.01 289.682C1323.01 288.334 1328.99 287.481 1335.12 287.032C1346.31 286.21 1356.77 285.776 1367.52 282.117C1369.53 281.466 1369.13 279.715 1367.05 280.412Z" fill="#272525"/>
<path d="M1694.7 268.816C1693.6 268.816 1692.5 268.816 1691.42 268.816C1690.97 269.467 1690.52 270.134 1690.07 270.785C1701.57 270.614 1713.03 269.7 1724.48 268.707C1727.37 268.459 1730.26 268.227 1733.13 267.808C1735.44 267.467 1736.37 266.444 1736.62 268.568C1736.79 270.01 1735.49 273.157 1735.05 274.583C1734.08 277.807 1732.61 280.954 1731.18 283.992C1730.03 286.442 1728.79 288.783 1727.06 290.875C1725.43 292.829 1725.58 293.015 1723.72 291.511C1720.1 288.566 1716.5 285.558 1712.62 282.892C1709.14 280.504 1705.65 277.606 1701.8 275.792C1698.72 274.335 1692.44 272.676 1690.6 269.421C1689.79 269.901 1688.98 270.382 1688.18 270.878C1688.75 270.847 1689.31 270.816 1689.88 270.785C1691.17 270.723 1693.56 268.692 1691.23 268.816C1690.66 268.847 1690.1 268.878 1689.53 268.909C1689.11 268.925 1686.58 269.421 1687.11 270.366C1690.08 275.621 1699.31 277.311 1703.93 280.613C1707.32 283.047 1710.83 285.357 1714.22 287.868C1716.24 289.356 1718.31 290.736 1720.13 292.472C1720.98 293.294 1721.54 294.58 1722.62 295.154C1726.23 297.092 1728.79 293.015 1730.57 290.55C1735.77 283.295 1738.37 274.614 1740.93 266.196C1740.98 266.026 1740.93 265.871 1740.81 265.731C1739.64 264.63 1738.87 264.785 1737.3 265.002C1732.82 265.623 1728.42 266.506 1723.85 266.894C1713.04 267.824 1702.24 268.661 1691.39 268.831C1690.1 268.847 1687.68 270.8 1690.04 270.8C1691.14 270.8 1692.24 270.8 1693.32 270.8C1694.66 270.785 1697.04 268.816 1694.7 268.816Z" fill="#272525"/>
<path d="M1391.64 382.058C1391.73 381.965 1391.84 381.872 1391.94 381.763C1391.01 381.577 1390.08 381.376 1389.15 381.19C1380.95 389.421 1373.32 398.862 1366.76 408.442C1365.46 410.349 1362.48 413.031 1364.45 415.139C1365.96 416.751 1369.89 416.55 1371.91 416.736C1376.17 417.139 1380.48 418.658 1384.71 418.86C1386.36 418.937 1387.63 418.86 1388.67 417.294C1389.67 415.775 1389.43 412.457 1389.56 410.737C1389.81 407.838 1389.86 404.923 1390.08 402.024C1390.32 398.784 1390.6 395.529 1390.98 392.305C1391.32 389.297 1391.07 385.809 1392.48 383.158C1391.36 383.22 1390.25 383.282 1389.13 383.344C1389.12 383.469 1389.12 383.593 1389.1 383.717C1388.99 385.112 1392.48 384.445 1392.57 383.282C1392.59 383.158 1392.59 383.034 1392.6 382.91C1392.71 381.469 1389.66 382.306 1389.25 383.096C1387.6 386.212 1387.81 389.251 1387.5 392.754C1387.15 396.986 1386.59 401.203 1386.37 405.45C1386.28 407.14 1386.79 415.635 1385.6 416.55C1384.54 417.356 1377.33 415.139 1376.11 414.984C1374.26 414.767 1371.78 415.155 1370.09 414.426C1366.99 413.093 1367.8 411.775 1369.41 409.388C1370.68 407.497 1372 405.652 1373.37 403.823C1379.02 396.196 1385.27 388.491 1391.97 381.779C1393.39 380.353 1390 380.399 1389.18 381.205C1389.08 381.298 1388.98 381.391 1388.88 381.5C1387.41 382.91 1390.82 382.864 1391.64 382.058Z" fill="#272525"/>
<path d="M1661.84 348.93C1664.87 354.682 1670.91 358.201 1676.76 360.603C1680.03 361.937 1683.44 362.913 1686.8 363.983C1689.67 364.897 1695.19 365.781 1697.41 368.122C1697.59 367.719 1697.76 367.331 1697.95 366.928C1697.11 367.486 1695.48 367.238 1694.46 367.703C1692.74 368.494 1691.65 369.874 1690.37 371.253C1688.1 373.687 1676.38 385.639 1673.64 382.849C1672.46 381.655 1672.76 376.571 1672.06 374.819C1670.71 371.455 1669.16 368.261 1668.04 364.789C1666.98 361.534 1665.72 358.309 1665.3 354.899C1665.04 352.697 1665.46 350.837 1664.05 348.961C1663.33 348.016 1659.98 349.209 1660.82 350.326C1662.01 351.907 1661.69 353.519 1661.83 355.302C1662.01 357.689 1662.62 359.627 1663.35 361.89C1664.54 365.657 1665.72 369.409 1667.32 373.036C1668.14 374.912 1669.11 376.648 1669.55 378.679C1669.91 380.384 1669.21 382.709 1669.87 384.244C1670.57 385.825 1670.62 385.98 1672.4 386.027C1676.94 386.135 1683.53 380.694 1686.86 378.136C1689.62 376.012 1691.42 373.036 1694.09 370.866C1696.06 369.269 1698.12 369.269 1700.1 367.967C1700.44 367.734 1701.06 367.207 1700.65 366.773C1697.65 363.611 1691.03 362.789 1686.97 361.503C1679.11 359.007 1669.44 355.844 1665.33 348.031C1664.7 346.822 1661.33 347.954 1661.84 348.93Z" fill="#272525"/>
<path d="M1422.41 225.846C1424.94 238.201 1427.71 250.509 1430.87 262.725C1432.38 268.538 1434.07 274.305 1435.62 280.118C1436.66 283.994 1437.51 289.249 1440.24 292.38C1440.79 293.016 1442.9 292.427 1442.81 291.497C1442.65 289.962 1442.05 288.753 1441.21 287.482C1440.73 286.737 1438.14 287.606 1438.73 288.52C1439.59 289.807 1439.99 290.737 1440.14 292.21C1441 291.915 1441.85 291.621 1442.72 291.326C1439.77 287.947 1439.04 282.071 1437.9 277.901C1436.3 272.026 1434.61 266.197 1433.11 260.307C1430.11 248.649 1427.49 236.914 1425.08 225.133C1424.87 224.218 1422.21 224.869 1422.41 225.846Z" fill="#272525"/>
<path d="M1421.12 210.204C1419.55 210.638 1418.92 211.739 1418.93 213.304C1418.96 215.01 1419.79 216.11 1421.27 216.901C1421.96 217.257 1423.13 216.87 1423.57 216.281C1424.58 214.947 1425.75 212.514 1425.17 210.824C1424.33 208.452 1420.58 209.739 1420.78 212.033C1420.86 212.901 1423.54 212.328 1423.44 211.32C1423.43 211.165 1423.43 211.01 1423.44 210.839C1422.92 210.871 1422.39 210.902 1421.86 210.933C1423.74 211.661 1421.88 215.211 1421.1 216.219C1421.86 216.017 1422.64 215.8 1423.4 215.599C1422.47 215.103 1421.86 214.498 1421.68 213.444C1421.62 213.041 1421.58 212.638 1421.63 212.235C1421.65 212.064 1421.69 211.909 1421.71 211.739C1421.76 211.258 1422.17 211.32 1421.48 211.506C1421.86 211.398 1422.78 211.041 1422.62 210.483C1422.48 209.971 1421.48 210.111 1421.12 210.204Z" fill="#272525"/>
<path d="M1453.25 219.969C1451.95 222.821 1452.96 223.937 1453.87 226.697C1454.96 229.921 1455.38 233.564 1456.15 236.882C1457.78 243.842 1459.07 250.771 1459.98 257.871C1460.83 264.522 1461.61 271.172 1462.29 277.838C1462.8 282.861 1463.45 288.86 1466.17 293.231C1466.6 293.929 1468.6 293.247 1468.74 292.549C1469.02 291.123 1468.97 289.914 1468.91 288.441C1468.88 287.604 1466.2 288.131 1466.25 289.154C1466.35 290.395 1466.31 291.635 1466.07 292.875C1466.93 292.642 1467.78 292.41 1468.65 292.193C1465.87 287.728 1465.38 281.372 1464.88 276.288C1464.26 269.885 1463.47 263.53 1462.66 257.158C1461.87 250.942 1460.9 244.803 1459.44 238.695C1458.7 235.595 1457.98 232.479 1457.3 229.363C1456.56 226.03 1454.39 222.992 1455.94 219.612C1456.28 218.837 1453.64 219.101 1453.25 219.969Z" fill="#272525"/>
<path d="M1454.06 218.93C1459.41 218.883 1464.72 218.542 1469.84 220.433C1473.81 221.891 1477.65 224.092 1480.8 226.944C1486.49 232.107 1489.76 242.245 1490.47 249.779C1491.39 259.406 1488.05 268.877 1482.38 276.582C1479.91 279.93 1477.48 284.224 1474.27 286.922C1471.61 289.169 1468.18 289.247 1465.59 291.572C1466.4 291.588 1467.19 291.603 1467.99 291.619C1468.02 291.433 1468.07 291.262 1468.1 291.076C1468.3 290.069 1465.62 290.503 1465.44 291.417C1465.4 291.603 1465.36 291.774 1465.33 291.96C1465.11 293.045 1467.39 292.316 1467.73 292.006C1469.65 290.286 1471.96 290.301 1474.05 289.154C1475.4 288.41 1476.52 287.294 1477.57 286.177C1480.75 282.767 1483.7 278.582 1486.27 274.691C1491.57 266.645 1494.35 257.003 1492.95 247.391C1491.74 238.927 1488.05 229.301 1481.05 224.092C1473 218.108 1464.83 217.364 1455.13 217.442C1454.1 217.426 1452.27 218.945 1454.06 218.93Z" fill="#272525"/>
<path d="M1528.18 223.102C1522.03 222.574 1515.97 222.559 1509.8 222.233C1507.71 222.125 1504.02 221.334 1502.44 223.458C1501.58 224.621 1501.92 226.155 1501.96 227.489C1502.05 231.023 1501.83 234.573 1502.03 238.107C1502.44 244.882 1502.79 251.563 1502.89 258.353C1502.98 265.313 1502 272.227 1501.96 279.203C1501.94 282.211 1500.96 287.528 1502.99 290.21C1505.47 293.465 1511.54 292.008 1514.96 292.008C1518.09 292.008 1521.26 292.194 1524.39 292.147C1526.73 292.116 1528.88 291.264 1531.19 291.202C1532.18 291.171 1534.01 289.636 1532.23 289.698C1530.45 289.745 1528.9 290.163 1527.11 290.411C1524.59 290.752 1522.06 290.52 1519.52 290.52C1515.69 290.504 1506.08 292.008 1504.81 287.605C1503.77 284.055 1504.59 278.304 1504.67 274.785C1504.78 269.98 1505.54 265.22 1505.57 260.415C1505.66 249.811 1504.62 239.332 1504.62 228.744C1504.62 226.651 1504.09 224.094 1506.82 223.582C1508.39 223.288 1510.67 223.815 1512.28 223.815C1517.3 223.815 1522.14 224.202 1527.13 224.621C1528.17 224.698 1529.97 223.257 1528.18 223.102Z" fill="#272525"/>
<path d="M1501.97 257.097C1505.5 257.407 1509 258.43 1512.59 258.709C1516.34 259.004 1520.12 258.756 1523.89 258.725C1524.88 258.709 1526.71 257.206 1524.92 257.221C1520.96 257.252 1516.99 257.5 1513.03 257.128C1509.64 256.818 1506.35 255.888 1503 255.593C1501.98 255.485 1500.18 256.927 1501.97 257.097Z" fill="#272525"/>
<path d="M1545.9 279.854C1545.33 280.598 1545.33 280.629 1544.94 281.482C1545.83 281.373 1546.72 281.265 1547.61 281.141C1548.4 269.545 1547.67 257.671 1547.67 246.044C1547.67 239.208 1547.42 232.356 1547.67 225.535C1547.78 222.683 1548 219.846 1548.43 217.025C1548.54 216.327 1548.71 213.924 1549.13 213.196C1549.78 212.08 1548.75 212.359 1549.82 213.134C1551.67 214.482 1553.14 217.939 1554.34 219.861C1556.18 222.822 1557.92 225.83 1559.59 228.884C1562.35 233.906 1564.94 239.037 1567.54 244.138C1570.23 249.393 1572.92 254.648 1575.42 260.012C1577.56 264.6 1579.29 269.452 1582.16 273.653C1582.98 273.312 1583.8 272.956 1584.64 272.615C1584.47 272.429 1584.3 272.227 1584.13 272.041C1583.53 271.359 1580.97 272.32 1581.65 273.08C1581.82 273.266 1581.99 273.467 1582.16 273.653C1582.74 274.305 1585.26 273.514 1584.64 272.615C1580.78 266.957 1578.52 260.058 1575.53 253.919C1572.49 247.703 1569.31 241.564 1566.12 235.426C1563.33 230.046 1560.44 224.698 1557.25 219.52C1555.72 217.04 1552.86 209.987 1549.22 210.405C1546.17 210.762 1546.12 215.118 1545.78 217.35C1544.83 223.628 1544.91 230 1544.99 236.325C1545.07 243.332 1545.03 250.338 1545.03 257.345C1545.03 265.344 1545.52 273.498 1544.97 281.466C1544.89 282.676 1547.31 281.823 1547.64 281.125C1547.9 280.707 1548.17 280.304 1548.41 279.885C1549.11 278.971 1546.45 279.172 1545.9 279.854Z" fill="#272525"/>
<path d="M1545 253.841C1549.99 253.779 1554.9 253.252 1559.82 252.322C1561.64 251.981 1563.46 251.609 1565.27 251.206C1567.35 250.741 1570.59 249.051 1572.6 248.973C1573.6 248.927 1575.43 247.392 1573.64 247.47C1570.16 247.609 1566.95 249.454 1563.52 250.182C1557.72 251.407 1551.97 252.275 1546.03 252.337C1545.04 252.353 1543.21 253.872 1545 253.841Z" fill="#272525"/>
<path d="M1621.34 219.458C1616.26 211.335 1608.18 206.777 1599.45 207.614C1592.29 208.296 1584.08 213.272 1583.95 222.589C1583.77 235.456 1595.73 240.742 1604.09 245.036C1611.55 248.881 1618.97 253.996 1619.87 264.321C1621.03 277.699 1610.41 288.101 1598.93 283.481C1597.87 283.062 1595.45 284.21 1597.36 284.969C1612.55 291.077 1630.29 274.133 1620.49 255.81C1615.09 245.718 1604 243.935 1595.9 238.06C1589.11 233.13 1583.66 223.457 1589.69 215.04C1597.66 203.94 1612.13 209.97 1618.35 219.892C1618.95 220.884 1621.93 220.419 1621.34 219.458Z" fill="#272525"/>
<path d="M1508.21 90.3729C1505.71 88.7141 1504.53 82.5598 1503.36 79.9555C1501.6 76.111 1499.57 72.4215 1497.48 68.7631C1495.54 65.3836 1493.53 62.0507 1491.67 58.6403C1489.51 54.7027 1492.75 55.5554 1495.71 54.7803C1497.87 54.2222 1503.68 50.7342 1505.28 51.4318C1507.22 52.2999 1506.97 58.3302 1507.03 59.9269C1507.4 70.4218 1505.91 80.7771 1505.68 91.241C1506.84 91.0084 1507.99 90.7914 1509.15 90.5589C1509.15 90.4349 1509.15 90.2953 1509.15 90.1713C1509.15 89.1017 1505.68 89.7528 1505.68 91.1015C1505.68 91.2255 1505.68 91.365 1505.68 91.489C1505.68 92.5431 1509.14 91.8921 1509.15 90.8069C1509.43 78.5293 1512.04 65.7402 1510.05 53.4936C1509.71 51.3544 1509.56 49.4941 1507.31 49.0445C1506.07 48.7965 1504.97 49.6491 1503.9 50.0211C1500.24 51.2768 1496.75 52.827 1492.91 53.4936C1491.09 53.8037 1487.73 53.7261 1486.99 55.9894C1486.23 58.2992 1489.88 62.5933 1490.81 64.221C1494.47 70.5613 1498.38 76.8551 1501.09 83.676C1502.27 86.6214 1502.66 90.2023 1505.45 92.0626C1506.38 92.6827 1509.59 91.2875 1508.21 90.3729Z" fill="#272525"/>
<defs>
<filter id="filter0_d_108_228" x="0" y="0" width="2365.08" height="775.319" filterUnits="userSpaceOnUse" color-interpolation-filters="sRGB">
<feFlood flood-opacity="0" result="BackgroundImageFix"/>
<feColorMatrix in="SourceAlpha" type="matrix" values="0 0 0 0 0 0 0 0 0 0 0 0 0 0 0 0 0 0 127 0" result="hardAlpha"/>
<feOffset dy="20"/>
<feGaussianBlur stdDeviation="25"/>
<feColorMatrix type="matrix" values="0 0 0 0 0 0 0 0 0 0 0 0 0 0 0 0 0 0 0.1 0"/>
<feBlend mode="normal" in2="BackgroundImageFix" result="effect1_dropShadow_108_228"/>
<feBlend mode="normal" in="SourceGraphic" in2="effect1_dropShadow_108_228" result="shape"/>
</filter>
<linearGradient id="paint0_linear_108_228" x1="-285.404" y1="751.279" x2="42.6751" y2="-609.98" gradientUnits="userSpaceOnUse">
<stop stop-color="#9796F0"/>
<stop offset="1" stop-color="#FFE0E8"/>
</linearGradient>
</defs>
</svg>
